<?xml version="1.0" encoding="UTF-8"?>
<svg id="Capa_1" data-name="Capa 1" xmlns="http://www.w3.org/2000/svg" viewBox="0 0 402.31 202.3">
  <defs>
    <style>
      .cls-1 {
        fill: #9e883f;
        stroke-width: 0px;
      }
    </style>
  </defs>
  <path class="cls-1" d="m362.05,188.9c-1.39.82-2.7,1.74-4.17,2.43-2.95,1.39-5.98,2.67-9,3.96-5.28,2.25-10.76,4.06-16.62,4.98-3.09.49-6.16,1.15-9.28,1.43-4.09.37-8.23.72-12.32.56-4.74-.18-9.51-.69-14.16-1.47-4.43-.74-8.76-1.92-13.08-3.05-2.31-.61-4.5-1.54-6.75-2.29-1.05-.35-1.85-.69-2.79.57-1.51,2.03-3.78,3.54-6.73,4.04-1.9.32-3.84.89-5.71.77-5.33-.34-9.99-2.04-13.86-5.28-3.46-2.91-5.63-6.26-5.84-10.37-.07-1.36.43-2.73.49-4.11.03-.56-.21-1.38-.68-1.66-3.22-1.9-6.59-3.63-9.81-5.54-3.98-2.35-7.84-4.83-11.78-7.24-3.89-2.38-7.81-4.74-11.71-7.11-.3-.18-.6-.38-.9-.57-1.54-.95-2.66-1.97-5.22-1.44-6.13,1.29-12.16.4-17.77-2.15-1.96-.89-3.91-1.8-5.75-2.98,6.64,2.47,13.4,3.41,20.99,1.76-13.89-8.68-27.72-16.88-42.8-23.5-4.99,6.25-11.38,8.49-17.36,6.17-5.71-2.22-7.26-6.47-4.83-13.56-.73-.13-1.46-.25-2.17-.4-7.8-1.63-15.72-2.11-23.63-1.07-5.06.66-10.12,1.64-14.74,3.7-2.98,1.33-6.08,2.49-8.98,3.93-2.35,1.17-4.42,2.72-6.72,3.97-2.36,1.28-4.73,2.62-7.29,3.56-7.29,2.7-14.91,2.71-22.62,1.6-.62-.09-1.24-.16-2.01-.26-.93,2.64-1.79,5.24-2.76,7.81-1.95,5.17-4.08,10.29-8.6,14.36-2.1,1.89-4.51,3.41-7.49,4.37-2.95.94-5.9,1.37-8.9.77-4.9-.99-9.01-3.22-12.1-6.56C1.92,153.98-.35,148.23.05,141.79c.25-4,1.57-7.68,5.21-10.42,3.2-2.41,7.14-3.11,11.18-1.87,3.66,1.13,5.55,3.71,6.16,6.88.53,2.77.11,5.39-1.99,7.72-2.46,2.72-7.01,2.85-9.76.34-2.69-2.46-3.42-5.35-2.99-8.87-2.16,2.12-2.77,4.37-2.73,6.7.1,5.49,2.94,10.02,7.57,13.76,2.53,2.04,5.89,3.2,9.28,3.03,4.17-.21,7.76-1.96,10.32-4.92,3.71-4.28,5.04-9.35,6.77-14.28,1.28-3.66,1.16-3.64-2.84-5.47-15.62-7.12-23.84-18.46-26.25-32.92-1.5-8.98.25-17.62,5.02-25.79,2.77-4.74,6.47-8.88,11.16-12.43,4.31-3.26,9.04-5.98,14.24-8.11,3.98-1.63,8-3.22,12.03-4.77,4.21-1.62,8.5-3.11,12.67-4.79.67-.27,1.19-1.18,1.38-1.87,1.84-6.53,3.43-13.11,5.42-19.61,1.79-5.87,3.8-11.7,6.08-17.44,1.04-2.64,2.97-4.89,6.35-6.18,3.09-1.17,5.47,0,7.42,1.37,6.87,4.81,8.74,11.46,8.67,18.59-.05,4.76-1.49,9.27-4.47,13.37-2.18,3-4.81,5.7-8.4,7.56-3.34,1.73-6.84,3.25-10.29,4.83-1.37.63-2.83,1.13-4.2,1.77-.45.21-.92.63-1.04,1.03-1.54,5.15-3.02,10.32-4.56,15.64,12.08,1.51,19.18,7.87,24.02,16.77,1.5-1.43,2.84-2.78,4.27-4.05,4.03-3.6,7.95-7.3,12.18-10.73,3.9-3.16,8.03-6.15,12.31-8.94,3.19-2.09,6.76-3.78,10.22-5.57.89-.46,1.2-.83.98-1.75-1.38-5.91,1.25-10.59,6.6-14.34,3.99-2.8,8.57-4.42,13.82-4.2,7.63.33,13.33,4.29,13.96,11.05,2.77,0,5.59-.2,8.35.04,5.92.52,11.86,1.1,17.72,2,4.44.68,8.79,1.82,13.13,2.91,6.44,1.61,12.84,3.36,19.25,5.07.33.09.6.32,1.12.62,3.05-10.68,6.05-21.22,9.08-31.82,2.14.16,3.37.57,3.79,2.61.81,3.93,3.51,7.22,6.27,10.4,3.87,4.45,7.37,9.07,6.4,14.87-.49,2.93-1.86,5.75-2.87,8.75,1.1.14,2.65.38,4.2.52,3.91.35,7.82.83,11.74.91,3.02.06,6.08-.24,9.06-.67,4.41-.64,8.89-1.24,13.13-2.4,6.12-1.67,11.86-4.1,17.33-7.03,5.74-3.07,11.1-6.53,15.99-10.44,4.66-3.73,8.88-7.85,13.29-11.8.79-.71,1.57-1.44,2.61-2.04-.08.27-.06.63-.26.81-4.43,4.02-8.67,8.21-13.39,11.97-4.7,3.74-9.7,7.25-14.91,10.48-3.6,2.23-7.72,3.88-11.7,5.64-5.76,2.55-11.95,4-18.35,5.1-7.93,1.37-15.8.91-23.72.43-1.05-.06-2.06-.46-3.11-.6s-2.44-.52-3.14-.13c-1.25.71-2.15,1.88-3.07,2.94-.22.25-.05.82.11,1.2,2.95,6.87,1.21,12.97-4.4,18.37-1.61,1.55-3.52,2.88-5.29,4.31l-.45-.36c.81-.81,1.62-1.63,2.44-2.43,5.82-5.69,6.03-11.94.63-17.87-2.4-2.63-4.73-5.31-7.07-7.99-.33-.37-.53-.83-.98-1.56-.67,2.39-1.27,4.51-1.86,6.62-1.63,5.86-3.21,11.73-4.89,17.58-.43,1.5.08,2.19,1.79,2.85,4.89,1.87,9.64,3.97,14.47,5.95,1.52.62,3.09,1.2,4.69,1.65,4.94,1.41,9.87,2.88,14.89,4.07,3.39.8,6.91,1.22,10.39,1.74,2.23.33,4.48.63,6.73.79,1.08.07,2.48.67,3.21-.86.11-.23,2.18.15,3.32.33.35.06.66.59.95.57,2.26-.17,4.52-.38,6.77-.66,2.64-.32,5.33-.53,7.89-1.13,6.04-1.39,12.04-2.89,17.59-5.43,2.91-1.34,5.99-2.42,8.84-3.84,3.53-1.76,6.91-3.74,10.33-5.65,1.41-.78,2.75-1.66,4.18-2.42,1.37-.73,1.87-1.61,1.66-3.02-1.69-11.38-3.28-22.77-4.9-34.16-.21-1.47-.39-2.95-.59-4.44,1.82-.37,3.5-.79,5.21-1.05,5.61-.87,10.87-2.55,15.89-4.77,2.93-1.3,5.89-2.56,8.8-3.9,1.3-.6,2.5-1.35,4.08-2.21.36,2.12.69,3.94.96,5.76,2.74,18.2,5.54,36.4,8.17,54.62.77,5.32-1.69,9.7-6.86,12.84-1.77,1.07-3.91,1.94-6.03,2.32-3.55.64-7.82-1.59-9.03-4.91-1.57-4.3-.21-8.19,2.76-11.62,3.35-3.86,7.99-5.87,14.22-5.31-1.07-7.58-2.13-15.12-3.24-23.07-1.19.94-2.16,1.68-3.09,2.46-4.17,3.48-8.26,7.03-12.52,10.43-2.9,2.31-6.06,4.39-9.02,6.65-.5.38-.87,1.17-.79,1.73.84,5.99,1.61,11.98,2.74,17.93,1.01,5.36-.64,9.91-5.11,13.72-2.05,1.75-4.73,2.89-7.6,3.22-4.64.52-8.9-2.17-9.52-6.64-.68-4.87,1.48-8.94,5.82-12.2,3.22-2.42,6.99-3.48,11.65-2.97-.54-3.87-1.07-7.68-1.65-11.8-1.52.89-2.77,1.65-4.05,2.37-4.29,2.42-8.52,4.94-12.92,7.21-2.82,1.45-5.87,2.6-8.88,3.76-5.66,2.19-11.42,4.18-17.61,5.08-4.11.6-8.25,1.04-12.37,1.55-.55.07-1.1.15-2.19.3,1.57,1.57,2.75,3.06,4.28,4.23,2.81,2.15,5.83,4.11,8.77,6.15,5.45,3.79,7.38,8.73,6.63,14.48-.22,1.68-.76,3.33-1.27,5.47,5.17-.48,10.18-.94,15.18-1.41,1.52-.14,3.07-.2,4.54-.51,5.81-1.22,11.67-2.31,17.37-3.85,4.57-1.23,9.04-2.84,13.35-4.64,5.3-2.21,10.46-4.68,15.54-7.23,4.46-2.23,8.85-4.58,13.05-7.14,4.55-2.76,8.86-5.79,13.23-8.75,3.14-2.12,6.21-4.31,9.61-6.27-.25.29-.44.64-.75.86-5.11,3.62-10.13,7.33-15.38,10.81-3.87,2.56-7.95,4.93-12.09,7.19-5.59,3.04-11.26,6-17.04,8.77-3.26,1.56-6.75,2.83-10.26,3.95-5.68,1.82-11.44,3.47-17.22,5.08-2.44.68-4.96,1.24-7.5,1.55-5.63.68-11.29,1.16-16.95,1.73-1.44.14-2.9.21-4.3.47-.56.11-1.16.57-1.48,1.01-1.32,1.83-2.54,3.72-3.8,5.58-.16-.07-.32-.13-.48-.2.97-2.01,1.95-4.03,3.13-6.48-5.51-.41-10.7-.8-16.17-1.2.21,10.84.42,21.59.64,32.67,3.05.55,6.32,1.09,9.56,1.72,11.42,2.2,22.97,2.08,34.52,1.23,5.09-.37,10.13-1.31,15.14-2.21,2.74-.49,5.37-1.41,8.03-2.19.39-.12.87-.5.95-.83,1.64-6.31.43-12.06-5.07-16.83-.96-.83-2.37-1.41-3.7-1.76-.62-.16-2.13.42-2.2.79-.11.64.35,1.69.98,2.04,2.78,1.51,4.46,3.57,4.95,6.26.94,5.22-4.16,8.83-9.06,7.67-4.57-1.08-7.04-3.93-7.67-7.85-.72-4.46.61-8.42,4.29-11.77,2.75-2.5,8.75-2.94,12.51-1.31,8.45,3.67,10.4,10.01,10.56,17.17.03,1.47-.24,2.95-.4,4.73,1.72-.59,3.25-1.11,4.71-1.61-.2-3.16.53-4.69,2.32-5.11,1.94-.45,2.98.13,4.38,2.46,10.72-4.31,20.55-9.84,30.1-15.76.14.17.27.34.41.51-2.55,1.56-5.05,3.17-7.65,4.67-3.44,1.99-6.91,3.95-10.45,5.81-2.49,1.3-5.12,2.43-7.7,3.6-1.32.6-2.71,1.09-4,1.74-.4.2-.67.71-.79,1.12-.77,2.61-2.57,3.21-5.55,2.07-.78-.3-2.02.06-2.99.29-2,.47-3.41,1.35-3.97,3.27-1.36,4.74-4.29,8.83-8.73,11.97-2.12,1.51-4.68,2.64-7.17,3.71-4.16,1.79-8.69,2.19-13.31,2.08-.8-.02-1.59-.15-2.38-.31,14.42-.89,24.25-10.24,26.93-18.02-1.96.53-3.67,1.14-5.46,1.46-5.2.91-10.45,1.65-15.65,2.56-9.09,1.58-18.26,1.23-27.35.46-6.2-.53-12.29-1.94-18.43-2.95-.31-.05-.63-.09-.93-.13-.98,1.43-1.86,2.89-2.94,4.23-1.93,2.38-4.51,4.02-7.92,4.78-1.83.41-3.44.82-5.42.12-5.65-1.99-7.97-5.48-6.41-10.48.5-1.61,1.39-3.14,2.19-4.91-14.1-5.15-27.51-11.62-40.9-18.56-.57,9.3-5.74,16.14-15.66,20.95,12.56,7.58,24.99,15.09,37.19,22.45,1.99-1.51,3.52-2.81,5.22-3.92,2.77-1.81,6.09-1.4,9.41-1.3,8.71.26,16.92,5.86,18.72,12.62.67,2.51.55,4.97-.71,7.43,1.75.63,3.42,1.35,5.17,1.84,3.04.87,6.13,1.61,9.21,2.39,7.67,1.95,15.5,3.11,23.53,3.01,4.39-.06,8.83-.09,13.14-.71,4.83-.69,9.63-1.77,14.25-3.12,6.69-1.96,12.94-4.77,18.98-7.88.77-.4,1.48-.89,2.22-1.34.15.16.3.32.46.48l-.07.02ZM95.59,101.3c2.73-1.81,5.41-3.79,8.34-5.46,3.52-2,7.26-3.71,10.9-5.57,5.2-2.66,10.93-4.24,16.77-5.41,3.93-.79,8.02-1.16,12.06-1.39,2.75-.16,5.55.13,8.3.43,4.01.43,7.99,1.05,11.98,1.59.92.12,1.84.26,2.84.41,1.71-5.49,3.36-10.82,5.07-16.29,1.19.33,2.19.6,3.27.9-.11.44-.18.74-.28,1.04-1.43,4.69-2.82,9.39-4.32,14.07-.33,1.03-.1,1.47,1.12,1.68,1.31.23,2.65.45,3.87.88,5.23,1.85,10.45,3.75,15.63,5.7,3.27,1.23,6.51,2.51,9.69,3.89,4.49,1.94,8.91,4.01,13.37,6,2.77,1.23,5.56,2.41,8.34,3.63,4.25,1.87,8.45,3.84,12.76,5.62,3.43,1.42,7,2.58,10.47,3.94,6.56,2.56,13.27,4.74,20.26,6.33.36.08.73.17,1.09.25,3.61.84,7.23,1.67,10.81,2.5v-28.29c-.72-.09-1.21-.15-1.7-.2-4.51-.48-9.08-.73-13.52-1.5-4.6-.8-9.17-1.89-13.59-3.22-5.6-1.69-11.06-3.71-16.54-5.66-1.76-.63-3.37-1.54-5.09-2.26-2-.84-4.03-1.6-6.05-2.4-.27.36-.44.53-.53.72-2.59,5.09-8.74,7.59-15.15,6.52-5.27-.88-8.91-5.5-7.98-9.57.51-2.21,1.81-4.3,2.81-6.58-1.11-.46-2.61-1.21-4.22-1.74-4.72-1.57-9.38-3.33-14.25-4.49-4.92-1.17-10.01-2.03-15.09-2.44-8.04-.65-16.07-.53-24.01,1.31-5.48,1.27-10.84,2.73-15.8,5.05-4.86,2.27-9.83,4.46-14.31,7.19-5.65,3.45-10.88,7.38-16.23,11.17-.84.59-1.89,1.54-1.87,2.3.07,3.13.51,6.25.82,9.38l-.04-.03Zm68.13,6.46c3.96,1.51,7.73,2.82,11.36,4.39,4.04,1.74,7.95,3.69,11.89,5.59,3.08,1.49,6.07,3.11,9.17,4.57,1.15.54,2.28,1.5,3.79.13,3.63-3.28,9.11-3.54,13.25-.72,4.04,2.75,6.7,6.3,7.15,10.64.24,2.34,1.6,3.52,3.73,4.56,4.26,2.08,8.42,4.31,12.74,6.29,5.43,2.49,10.97,4.8,16.47,7.18,1.82.79,3.57,1.77,5.49,2.29,1.52.41,3.02,1.91,4.88.5,1.06-.81,2.1-1.72,3.35-2.26,2.79-1.2,5.69-2.24,8.99-1.46.76.18,1.58.21,2.28.3v-23.01c-2.92-.64-5.62-1.14-8.25-1.84-5.86-1.56-11.74-3.07-17.49-4.88-5.33-1.68-10.51-3.71-15.74-5.61-1.49-.54-2.96-1.14-4.4-1.77-4.36-1.92-8.7-3.87-13.06-5.8-2.88-1.27-5.79-2.5-8.67-3.77-5.4-2.4-10.74-4.89-16.2-7.2-3.41-1.44-6.98-2.62-10.48-3.92-1.93-.72-3.81-1.56-5.79-2.18-2.68-.84-5.42-1.52-8.24-2.3-2.12,6.9-4.16,13.59-6.22,20.29h0Zm2.07-63.87c-.94,8.01-9.46,14.3-18.81,14.9-4.23.27-8.19-.47-11.4-2.97-1.36-1.05-2.46-2.33-3.8-3.63-.44.17-1.12.35-1.68.67-3.24,1.85-6.57,3.62-9.65,5.65-4.28,2.82-8.6,5.65-12.49,8.82-4.89,3.99-9.4,8.32-14,12.56-.85.78-2.07,1.92-1.9,2.71.55,2.59,1.66,5.09,2.55,7.6,3.95-2.88,7.8-5.86,11.87-8.61,3.07-2.07,6.32-3.98,9.67-5.71,4.23-2.2,8.62-4.2,13-6.19,1.7-.77,3.62-1.19,5.36-1.9,5.34-2.19,11.14-3.07,16.89-3.73,9.66-1.1,19.24-.32,28.56,2.2,4.85,1.31,9.68,2.67,14.47,4.13,1.91.58,3.67,1.52,5.53,2.24.97.38,1.9.73,3,.03,3.6-2.31,7.51-3.26,11.91-1.65,1.63.6,3.29,1.15,5.02,1.76,1.75-6.16,3.52-12.44,5.29-18.68-1.85-.57-3.36-1.09-4.9-1.5-3.13-.82-6.29-1.57-9.43-2.36-2.17-.54-4.32-1.16-6.5-1.64-5.95-1.32-11.89-2.68-17.89-3.83-2.78-.53-5.67-.74-8.53-.84-3.99-.14-8-.03-12.15-.03h0Zm45.01,86.81c0,1.91.24,3.72-.05,5.48-.62,3.8-4.4,5.71-8.65,4.33-3.04-.99-4.83-3.12-5.88-5.67-1.54-3.75-.56-7.24,1.8-10.81-11.06-5.82-22.34-11.22-34.54-15.57-2.12,6.95-4.19,13.81-6.31,20.65-.29.95.34,1.17,1.13,1.51,2.95,1.28,5.97,2.48,8.78,3.96,5.33,2.81,10.59,5.73,15.77,8.72,5.4,3.12,10.69,6.38,16.01,9.59,1.02.61,2.03.85,3.18.35,1.56-.68,3.29-1.19,4.63-2.09,6.7-4.5,9.68-10.31,8.34-17.52-.06-.34-.18-.81-.47-.98-1.23-.71-2.53-1.34-3.75-1.97v.02ZM58.45,73.23c-2.27.64-4.01,1.06-5.68,1.61-3.46,1.14-6.47,2.94-8.66,5.4-5.38,6.03-5.6,13.85-.77,20.17.94,1.23.54,2-1.02,2.93-1.44-1.75-3.18-3.29-4.14-5.12-7.62-14.55,2.36-28.52,18.31-32.54,3.54-.89,5.29-1.98,5.48-4.93.02-.26.16-.51.24-.77.87-2.87,1.73-5.74,2.73-9.03-4.33,2.11-8.2,3.99-12.06,5.89-4.44,2.18-8.44,4.84-12.14,7.85-6.32,5.15-10.99,11.13-13.58,18.21-2.4,6.57-2.99,13.11-.17,19.75,2.26,5.33,6,9.73,11.16,13.28,2.04,1.41,4.45,2.45,6.83,3.74,4.5-15.52,8.92-30.74,13.48-46.44h-.01Zm108.13,13.36c-3.17-.61-6.08-1.37-9.06-1.7-9.38-1.06-18.78-1.17-27.93,1.18-4.46,1.14-8.8,2.68-13.07,4.28-3.13,1.17-6.17,2.58-9.03,4.17-3.32,1.85-6.39,4.01-9.57,6.03-1.69,1.07-3.08,2.24-2.91,4.26.08.94-.22,1.9-.42,2.85-.39,1.89-.81,3.78-1.35,6.22,21.04-13.56,43.42-14.99,67.1-7.12,2.12-6.86,4.16-13.44,6.24-20.17Zm-115.6,34.66c2.46.39,4.62,1.17,6.63.95,3.75-.41,7.46-1.27,11.1-2.18,4.63-1.16,7.86-3.96,10.27-7.3,7.01-9.71,7.05-25.19-2.33-33.98-3.12-2.92-7.07-4.57-11.77-5.39-4.63,15.96-9.23,31.8-13.91,47.9h0Zm33.13,7.74c1.52-.69,2.88-1.21,4.14-1.88,5.04-2.69,10.62-4.27,16.34-5.42,5.79-1.17,11.76-1.24,17.68-.83,3.57.25,7.08,1.01,10.64,1.45.95.12,2.44.22,2.87-.23,4.15-4.27,10.91-5.38,16.3-2.94,1.28.58,2.59,1.12,3.92,1.69,1.25-4.07,2.44-8.15,3.79-12.2.37-1.12.06-1.46-1.21-1.77-3.56-.85-7.01-2.08-10.61-2.7-4.52-.78-9.14-1.28-13.75-1.58-2.61-.17-5.28.37-7.93.46-4.94.16-9.6,1.31-14.24,2.59-1.72.47-3.46,1-5.02,1.76-3.94,1.9-7.8,3.92-11.67,5.92-1.69.87-2.94,1.97-3.61,3.66-.82,2.05-1.91,4.05-3.13,5.95-1.3,2.03-2.9,3.93-4.5,6.06h0Zm255.23-81.47c1.35,8.88,2.68,17.67,4.05,26.73,3.18-2.28,6.21-4.25,8.96-6.45,5.12-4.09,10.08-8.33,15.11-12.5,1.03-.85,1.54-1.78,1.32-3.09-.6-3.53-1.02-7.09-1.53-10.64-.28-1.92-.59-3.83-.95-6.09-7.96,5.95-16.63,10.08-26.96,12.04h0ZM86.62,9.26c-5.53,10.39-8.08,21.11-11.48,31.68,1.89-.85,3.54-1.86,5.24-2.79,5.82-3.18,9.64-7.59,10.94-13.3,1.26-5.58.44-10.86-4.7-15.6h0Zm74.88,33.73c-1.56-3.28-4.46-5.28-8-6.29-4.85-1.38-9.79-1.51-14.45.96-3.89,2.07-5.84,6.32-3.91,9.97.99,1.87,1.15,1.94,3.33.99,4.77-2.07,9.87-3.36,15.07-4.35,2.57-.49,5.17-.84,7.95-1.28h0Zm120.37,66.01v17.2c1.56.36,2.74.79,3.96.88,3.73.29,7.48.48,11.22.61.43.01,1.29-.61,1.28-.93-.07-1.9.03-3.87-.6-5.66-1.29-3.72-5.04-5.75-8.61-7.82-2.5-1.45-4.96-2.93-7.26-4.29h.01Zm-10.62,83.85c.08-.41.18-.71.19-1.01.01-.42-.02-.85-.07-1.28-.51-4.58-3.27-8.23-7.16-11.22-2.99-2.3-6.48-4.03-10.87-3.74-3.36.22-6.03,2.11-6.58,4.82-.08.42.11,1.11.47,1.31,2.02,1.14,4.08,2.25,6.21,3.24,4.11,1.91,8.27,3.74,12.42,5.58,1.7.76,3.43,1.47,5.4,2.3h-.01Zm-36.84-158.08c-.65,2.4-1.34,4.8-1.94,7.22-.21.86-.39,1.79-.25,2.65.54,3.44,2.76,6.29,4.75,9.24,1.54,2.28,3.62,3.4,6.71,3.61,1.34.09,1.76-.2,2.13-1.17,1.42-3.78.65-7.32-1.9-10.5-2.99-3.74-6.27-7.31-9.51-11.05h0Zm36.62,159.05c-8.24-3.83-16.38-7.62-24.68-11.48.1.89.11,1.69.28,2.47,1.05,4.76,4.24,8.42,8.65,11.35,2.7,1.79,5.85,2.62,9.37,2.49,3.37-.13,6.22-2.37,6.38-4.83h0ZM136.54,49.58c3.12,3.7,7.26,4.76,11.58,5.43,2.97.46,5.75-.48,8.42-1.39,3.85-1.31,6.21-5.07,5.73-8.53-.13-.91-.52-1.22-1.59-1.04-2.96.49-5.98.76-8.87,1.44-5,1.19-9.91,2.64-15.27,4.08h0Zm77.51,81.81c.18-.11.36-.23.54-.34-1.05-1.49-2-3.05-3.23-4.43-.38-.43-1.55-.37-2.36-.53-.09.67-.51,1.48-.21,1.99,1.07,1.83,3.22,2.53,5.26,3.31h0Zm26.49-73.85c-.07.12-.15.24-.22.35.78.97,1.56,1.93,2.52,3.12.66-.93,1.18-1.64,1.74-2.42-1.52-.4-2.78-.72-4.03-1.05h-.01Z"/>
</svg>