<?xml version="1.0" encoding="UTF-8"?><svg id="Capa_1" xmlns="http://www.w3.org/2000/svg" viewBox="0 0 54.09 94.67"><defs><style>.cls-1{fill:#020202;}.cls-1,.cls-2,.cls-3{stroke-width:0px;}.cls-2{fill:#000;}.cls-4{stroke-miterlimit:10;}.cls-4,.cls-5{fill:#fff;stroke:#000;}.cls-3{fill:#010101;}.cls-5{stroke-linecap:round;stroke-linejoin:round;}</style></defs><path class="cls-4" d="M50.17,34.71H3.92c-.01.14-.04.26-.04.38,0,2.43-.01,4.87,0,7.3.02,3.42,1.03,6.62,2.87,9.61,1.78,2.9,4.25,5.25,7.31,7.12.99.6,2,1.1,3.24,1.21,1.03.09,2.04.3,3.06.42,2.87.35,5.76.6,8.66.38,2.55-.19,5.08-.52,7.62-.78,1.21-.12,2.27-.54,3.26-1.16,1.38-.86,2.69-1.79,3.85-2.88,4.03-3.78,6.21-8.28,6.42-13.48.1-2.61.02-5.22.03-7.84,0-.08-.01-.16-.02-.29ZM34.39,89.08c-2.1-1.38-3.16-3.22-3.68-5.31-.29-1.17-.5-2.38-.53-3.57-.08-3.43-.05-6.87-.06-10.3,0-.7.08-.8.82-1.06,2.5-.89,4.4-2.38,5.67-4.49.52-.87.87-1.79,1.06-2.84-7.11,1.35-14.16,1.34-21.25,0,.03.16.03.23.05.29.86,3.39,3.11,5.73,6.72,7.05.67.24.77.36.77,1,0,3.08.05,6.16-.02,9.23-.03,1.44-.19,2.9-.48,4.32-.45,2.22-1.54,4.18-3.62,5.6-.01,0,0,.05,0,.08h14.55ZM27.05,28.86s0,0,0,.01c-1.2,0-2.4,0-3.6,0-7.23,0-14.46,0-21.69-.01-.75,0-1.24.44-1.24,1.11,0,.67,0,1.34,0,2.01,0,.99.41,1.35,1.53,1.35,9.22,0,18.44,0,27.66,0,7.46,0,14.93,0,22.39,0,1.08,0,1.51-.38,1.51-1.34,0-.62,0-1.23,0-1.85,0-.9-.44-1.29-1.47-1.29-8.36,0-16.71,0-25.07,0ZM27.08,90.44s0,.01,0,.02c-.55,0-1.11,0-1.66,0-4.41,0-8.82-.02-13.23-.02-1.28,0-2.22.81-2.22,1.87,0,1.06.97,1.85,2.24,1.85,3.58,0,7.15,0,10.73,0,2.23,0,4.47-.02,6.7-.02,4.15,0,8.29.02,12.44,0,1.12,0,1.97-.8,2.02-1.78.05-1.11-.88-1.94-2.22-1.94-4.93,0-9.87,0-14.8,0Z"/><path class="cls-4" d="M50.17,34.71c.01.12.02.21.02.29,0,2.61.08,5.23-.03,7.84-.21,5.2-2.39,9.69-6.42,13.48-1.16,1.09-2.47,2.01-3.85,2.88-.99.62-2.05,1.04-3.26,1.16-2.54.26-5.07.58-7.62.78-2.9.22-5.79-.03-8.66-.38-1.02-.12-2.03-.33-3.06-.42-1.23-.11-2.25-.61-3.24-1.21-3.07-1.87-5.53-4.22-7.31-7.12-1.84-2.99-2.84-6.19-2.87-9.61-.02-2.43,0-4.87,0-7.3,0-.12.02-.24.04-.38h46.25Z"/><path class="cls-4" d="M34.39,89.08h-14.55s-.01-.07,0-.08c2.08-1.42,3.16-3.37,3.62-5.6.29-1.42.45-2.87.48-4.32.07-3.08.02-6.16.02-9.23,0-.65-.1-.76-.77-1-3.61-1.32-5.87-3.66-6.72-7.05-.02-.06-.02-.13-.05-.29,7.09,1.33,14.14,1.34,21.25,0-.19,1.05-.54,1.97-1.06,2.84-1.27,2.11-3.16,3.6-5.67,4.49-.74.26-.82.36-.82,1.06.01,3.43-.02,6.87.06,10.3.03,1.19.24,2.4.53,3.57.52,2.09,1.58,3.93,3.68,5.31Z"/><path class="cls-4" d="M27.05,28.86c8.36,0,16.71,0,25.07,0,1.03,0,1.47.39,1.47,1.29,0,.62,0,1.23,0,1.85,0,.97-.42,1.34-1.51,1.34-7.46,0-14.93,0-22.39,0-9.22,0-18.44,0-27.66,0-1.12,0-1.53-.36-1.53-1.35,0-.67,0-1.34,0-2.01,0-.67.5-1.11,1.24-1.11,7.23,0,14.46,0,21.69.01,1.2,0,2.4,0,3.6,0,0,0,0,0,0-.01Z"/><path class="cls-4" d="M27.08,90.44c4.93,0,9.87,0,14.8,0,1.34,0,2.27.83,2.22,1.94-.05.99-.9,1.78-2.02,1.78-4.15,0-8.29,0-12.44,0-2.23,0-4.47.01-6.7.02-3.58,0-7.15,0-10.73,0-1.27,0-2.24-.8-2.24-1.85,0-1.06.94-1.87,2.22-1.87,4.41,0,8.82.01,13.23.02.55,0,1.11,0,1.66,0,0,0,0-.01,0-.02Z"/><path class="cls-5" d="M50.22,23.43C50.22,10.77,39.96.5,27.29.5S4.36,10.77,4.36,23.43"/><path class="cls-2" d="M26.07,16.65v-3.43c0-.43-.07-.64-.57-.57-.71.07-1.5,0-2.21,0s-1.14-.43-1.14-1,.43-1,1.14-1h2.29c.36,0,.5-.07.5-.43v-2.07c0-.71.36-1.14.93-1.21.57,0,1,.43,1,1.21v2c0,.36.07.57.5.5h2.29c.71,0,1.14.43,1.14,1s-.43,1-1.14,1h-2.21c-.43,0-.57.07-.57.57v6.64c0,1-.29,1.5-1,1.5s-1-.5-1-1.5c.07-1.07.07-2.14.07-3.21h0Z"/><path class="cls-3" d="M27.64,58.21h-2c-.7,0-1.2-.5-1.3-1.2-.1-.8.3-1.4,1.1-1.5,1.5-.2,3-.2,4.5,0,.8.1,1.2.7,1.1,1.4-.1.8-.6,1.2-1.4,1.2-.7.1-1.3.1-2,.1h0Z"/><path class="cls-1" d="M46.64,39.71c0,.7-.6,1.3-1.4,1.3s-1.4-.7-1.4-1.5c0-.7.7-1.3,1.4-1.3.8.1,1.4.7,1.4,1.5h0Z"/><path class="cls-1" d="M39.64,43.81c.7,0,1.4.6,1.4,1.3s-.6,1.4-1.3,1.4c-.8,0-1.4-.6-1.4-1.4,0-.6.6-1.3,1.3-1.3h0Z"/></svg>