<?xml version="1.0" encoding="UTF-8"?>
<svg id="Capa_1" data-name="Capa 1" xmlns="http://www.w3.org/2000/svg" viewBox="0 0 67.74 95">
  <defs>
    <style>
      .cls-1 {
        fill: #fff;
      }
    </style>
  </defs>
  <g>
    <path class="cls-1" d="M24.69,94.2c-4.5,0-8.5-2.9-10.3-6.9,.5,2.1,1.8,4,3.2,5.2,.2,.2,.2,.4,.1,.6-.1,.1-.3,.2-.4,.2h-.2c-1.1-.5-2.5-.8-4-1.2-.9-.2-1.8-.4-2.7-.7,0,.2-.1,.3-.3,.4-1.7,.6-3.2,.9-4.5,.9-1.9,0-3.3-.6-4.2-1.8-1.4-1.8-1.5-4.8-.3-8.8,1.5-6.9,3.9-13.6,7.5-20.2,1.6-3,3.4-5.9,5.4-8.6-.1-.1-.2-.3-.2-.5,.4-3.7,1.1-4.5,2.1-5.8,.6-.7,1.2-1.4,1.9-2.8,1.4-3.1,3.4-6.4,5.8-9.9,.8-1.7,1.4-3.4,1.8-5.1,.1-.3,.1-.7,.2-1.1,0-.1,0-.3,.1-.4-.5,.1-1,.1-1.5,.1-1.6,0-2.8-.6-3.4-1.9-.5-.7-.4-1.7,0-2.4s.9-1.1,1.4-1.1c-1.7-1.3-2.8-3.8-2.4-5.7,.3-1.3,1.3-2.2,2.8-2.3h.1c.2,0,.5,.2,.5,.4,0,.3-.1,.5-.4,.6-.6,.1-.9,.4-1.1,.8v.1c.2,.5,.5,.5,.8,.5s.7-.1,.9-.3c1.4-1.2,1.6-3,1.8-5,.2-1.9,.4-3.9,1.9-5.2h-.1c-.5,0-1.1-.4-1.3-.9-.3-.6-.2-1.3,.3-1.9,.5-.4,.9-.6,1.4-.6,.6,0,1.2,.3,1.7,.8-.4-.8-.7-1.7-.3-2.4,.2-.4,.6-.8,1.7-.8h.2c1.4,.5,1.4,1.7,1.2,2.8,.1-.2,.2-.5,.4-.7,.4-.6,1-.9,1.5-.9,.3,0,.9,.1,1.4,.7,.4,.5,.4,1.1,.2,1.6s-.7,.8-1.1,.8c-.2,0-.5-.1-.7-.3-.1,.1-.1,.2-.2,.4,1.7,.3,4.5,1,5.5,2.6,.4,.6,.5,1.2,.3,1.9,1,1.1,1.4,2.6,1.1,3.9-.2,1-.9,1.8-2,2.2v1.2c0,1.2-.1,1.4-1.5,3.5-.2,.4-.7,.8-1.5,.8-.2,0-.4,0-.6-.1,0,.4,.1,.8,.4,1.1,.5,.6,1.3,.9,2.3,.9,.3,0,.7,0,1-.1,.4-.1,.8-.1,1.1-.1,1.5,0,2.3,1,2.4,2.9,.4,3.3,1.2,6.7,2.4,10.2,1.5,2.3,3,4.5,4,7,.6,1.3,2.4,4.4,5.5,5,.07,0,.13,.03,.2,.1,.2,.2,.3,.5,.3,.7-.1,.2-.2,.3-.3,.5,0,.1,.1,.3,.1,.4,.2,.5,.4,1.1,.2,1.6l-.3,.3h-.2c-.1,0-.2,0-.2-.1-.1-.1-.2-.2-.4-.2,7.7,10,12.6,22.8,13.5,35.9,.5,2.4-.2,3.9-.9,4.7-.9,1.1-2.3,1.7-3.9,1.7h0c-1.4,0-2.9-.5-4.2-1.4-.1-.1-.2-.3-.2-.4-.9,.3-1.8,.6-2.7,.9-1.3,.4-2.5,.8-3.3,1.2-.1,0-.2,.1-.2,.1-.1,0-.3-.1-.4-.2-.2-.2-.1-.5,0-.7,1.8-1.8,2.9-4,3.2-6.2-.5,1.6-1.3,3-2.4,4.2-1.9,2-4.5,3.1-7.4,3.1-2.6,0-5.2-1-7.5-2.8-.2-.1-.4-.3-.6-.5s-.2-.5,0-.7c-.5-.3-1-.8-1.4-1.3-.1,.2-.3,.4-.5,.5,0,.1,0,.3-.1,.4s-.1,.2-.2,.3c-1.5,1.9-4.2,3.4-7.3,4.1-.4,.1-1.2,.2-2,.2h0Zm2.9-6.9c0,.1-.1,.2-.1,.2-.2,.6-.2,1.3,.1,1.8,.5,1,1.3,1.5,2.4,1.5,.6,0,1.2-.1,1.7-.4h-.4c-1.3,0-2.5-.5-3.1-1.4-.3-.4-.5-.9-.6-1.7h0Zm10.3,3.1c.4,.2,1,.4,1.5,.4,1.4,0,2.8-.8,3.1-1.8,.2-.5,.1-1.1-.2-1.7-.1,.8-.4,1.4-.7,1.8-.7,.9-1.8,1.4-3,1.4-.2,0-.4-.1-.7-.1h0Zm23.2-5.2c.4,.8,.6,1.6,.5,2.5,0,1.4-.9,2.3-2.2,3h.1c1-.2,2.1-.4,2.7-1,.7-.5,.9-1.1,.8-1.9-.1-.9-.9-1.9-1.9-2.6h0Zm-54.4,.3c-1.3,1-2,2-1.8,2.9,.2,1,1.4,1.8,3.3,2.2-.9-.5-1.5-1.1-1.9-1.9-.3-.9-.2-2,.4-3.2h0Zm9.9-35.9c-.2,.3-.4,.7-.5,1.1,.1-.1,.2-.2,.3-.4,.2-.2,.2-.4,.2-.7Zm35-.7c.3,.4,.6,.8,.9,1.1,0-.1-.1-.1-.1-.2-.1-.3-.3-.7-.8-.9ZM30.19,28.3c-.4,0-.7,.1-.9,.4-.5,.6-.6,1.9-.4,2.8,0,.1,0,.2-.1,.4-.6,.9-1.2,2.2-2,3.7-.8,1.6-1.7,3.3-2.5,4.6-.5,.6-1,1.2-1.5,1.8-1.1,1.3-2.3,2.7-3.3,4.2,0,.1-.1,.2-.1,.3,0,.3,0,.6-.1,.9,3.3-3.2,7-6,10.6-6,1.8,0,3.5,.7,4.9,2.1,1.7-1.4,3.4-2.1,5-2.1,1.9,0,3.6,.9,5.3,2.2-2.4-3.2-4.6-6.5-6-10.9-.1-.1,0-.3,.1-.5,.7-.9,.8-2.1,.3-3.1-.2-.4-.6-.9-1.4-.9-.4,0-.8,.1-1.2,.4-1.4,1.3-2.1,1.9-2.8,1.9-.5,0-.9-.3-1.3-.6-.5-.3-1.1-.8-2.1-1.2-.1-.4-.3-.4-.5-.4h0Zm-7.7-4.5s-.1,.2-.1,.4c.1,.3,.4,.4,.7,.4,.1-.1,.2-.2,.2-.3h-.1c-.1,0-.3-.1-.4-.2-.2-.2-.3-.3-.3-.3Zm8.1-.9c-.6,.4-1.3,.6-1.9,.9,.1,0,.6-.1,.8-.1,.5-.2,.8-.5,1.1-.8Zm-2.4-17.5v.3c.1-.1,.2-.1,.3-.2-.2,0-.3-.1-.3-.1h0Zm3.5-.6h0Z"/>
    <path d="M30.59,1.1s.1,0,0,0c2,.6,.4,3.1,.6,4.3h.6c.3,0,.5,0,.5-.1-.3-1.2,.6-3,1.7-3,.3,0,.7,.1,1,.5,.5,.8-.1,1.5-.6,1.5-.2,0-.4-.1-.5-.5h0c-.5,0-.9,.9-1.1,1.4,1.8,.3,6.9,1.2,6,4.3,1.7,1.6,1.9,4.8-.8,5.6-.2,2.8,.4,2-1.4,4.7-.3,.4-.7,.6-1.1,.6-.3,0-.7-.1-1-.2-.4,2,1.3,3.1,3.1,3.1,.4,0,.7,0,1.1-.1s.7-.1,1-.1c1.3,0,1.8,.9,1.9,2.4,.4,3.6,1.3,7,2.4,10.4,1.5,2.2,3,4.5,4,6.9,1.2,2.5,3.2,4.8,5.9,5.3,.2,.1-.1,.4-.3,.4h0c-.1,.5,.6,1.5,.3,2.2-1.5-.9-.6-2.5-3.7-2.8,9.5,10.5,15.2,24.6,16.2,38.9,.8,3.9-1.5,5.9-4.3,5.9-1.3,0-2.7-.4-3.9-1.3,1.2-.4,3.3-.5,4.4-1.4,2.7-2.1-.5-5.4-2.9-6.1,.6,.9,1.5,2.3,1.3,3.7-.1,3.5-6.9,4-9.6,5.5,2.9-2.8,4.4-7,2.9-11.1,.4,6.9-4.4,11.3-9.8,11.3-2.4,0-4.9-.9-7.2-2.7,.6,.4,1.4,.6,2.1,.6,2.8,0,5.5-2.7,2.3-5.5,.6,2.7-1.1,4.2-3.1,4.2-1.4,0-2.9-.8-3.7-2.4-.6,1.6-2.2,2.4-3.7,2.4-2,0-3.9-1.4-2.9-4.1-1.2,.6-1.9,2.4-1.2,3.7,.6,1.3,1.7,1.8,2.8,1.8,1.5,0,3.2-.9,4-1.8-1.6,2.1-4.4,3.4-7,4-.8,.2-1.6,.3-2.3,.3-5.5,0-10.5-4.7-10.8-10.2-1,3.5,.7,7.3,3.4,9.4-4.6-2-14.4-1.5-9-8.9-6.1,3.2-4.5,6.8,1.7,7.4-1.7,.6-3.1,.9-4.3,.9-4.5,0-5.8-4-4-9.9,1.5-7.1,4.1-13.8,7.4-20.2,2.2-4.2,4.8-8,7.8-11.6,.3-.6,.2-1.3,.5-2h-.1c-1.6,0-1.6,3.8-2.9,4.4,.6-5.4,1.8-4.4,4-8.4,1.6-3.5,3.6-6.8,5.8-9.9,.8-1.7,1.4-3.4,1.8-5.3,.3-1.5,.3-3.9,1.7-4.8,.5-.3,1.3-.4,2-.6,2.4-.5,2.8-3.9,1.7-5.7-.3,.1,0,1,0,1.4,.8,2.9-2.4,3.1-4.2,4-1.2,.8-1.1,2.2-1.3,3.5-.5,.1-1.1,.1-1.7,.1-1.2,0-2.3-.3-2.9-1.6-.8-1,.1-2.8,1-2.8,.3,0,.7,.2,.9,.8-.2-.3-.5-.4-.7-.4-.7,0-1,1.7,.6,1.7h.1c1.1-.6,.4-2.1-.4-2.7-2.7-1.6-4.1-6.9-.2-7.4-2.5,.5-1.9,3.7-.4,3.7,.3,0,.6-.1,.9-.3-.2,.1-.5,.1-.7,.1-1,0-1.7-.9-1.4-2,.2,.6,.7,.9,1.3,.9,.4,0,.9-.2,1.2-.5,3.6-3,.2-9.4,5.5-11.2-.1-.3-.8-.9-1.2-.9-.2,0-.4,.1-.4,.6-.1,.3-.3,.4-.5,.4-.6,0-1.4-1-.6-2,.3-.3,.7-.5,1-.5,1,0,2,1.2,2.5,2.1h0s1-.2,.9-.2c-.6-1-2.7-4.2,0-4.1m3.6,28.6c-.7,0-1.2-1-3.3-1.8-.3-.1-.5-.1-.7-.1-1.8,0-2.1,2.2-1.8,3.8-1.2,2-2.9,5.9-4.4,8.2-1.5,1.8-3.3,3.9-4.8,6-.1,.1-.2,.4-.2,.5,.1,1.2-.8,2.2-1.1,3.2,3-3.2,7.7-7.8,12.2-7.8,1.7,0,3.3,.6,4.9,2.2,1.9-1.6,3.5-2.2,5-2.2,3,0,5.5,2.5,8.6,5.1-3.7-4.6-6.9-8.6-8.9-14.5,1.4-1.9,.5-4.8-1.5-4.8-.4,0-.9,.1-1.5,.5-1.4,1.2-2,1.7-2.5,1.7m-.1,59.5h0m0,0c0,.1-.1,.1-.2,.2,.1,0,.2-.1,.2-.2m2.7,1c.2,.1,.3,.3,.5,.5-.1-.2-.3-.4-.5-.5M30.59,0h0c-1.3,0-1.9,.6-2.1,1.1-.2,.4-.2,.9-.2,1.5-.2-.1-.5-.1-.8-.1-.6,0-1.2,.3-1.7,.7,0,0-.1,0-.1,.1-.6,.7-.7,1.6-.4,2.4,.2,.4,.5,.8,.9,1-1.1,1.4-1.3,3.3-1.5,4.9-.2,1.8-.4,3.6-1.6,4.6-.2,.1-.4,.2-.6,.2s-.3,0-.3-.1c.1-.1,.3-.3,.6-.3,.5-.1,.9-.6,.8-1.1s-.5-.8-1-.8h-.1c-1.7,.2-2.9,1.2-3.2,2.7-.4,1.8,.4,4.1,1.9,5.6-.4,.2-.7,.6-.9,1.1-.5,1-.5,2.1,.1,2.9,.7,1.4,2,2.1,3.8,2.1h.9c0,.3-.1,.6-.1,.9-.4,1.6-.9,3.2-1.7,5-2.4,3.5-4.3,6.8-5.8,9.9-.7,1.3-1.3,2-1.9,2.7-1.2,1.4-1.9,2.4-2.2,6,0,.2,0,.4,.1,.5-2,2.6-3.7,5.4-5.2,8.4-3.5,6.7-6,13.4-7.5,20.4-1.2,4-1,7.2,.4,9.2,.7,.9,2.1,2,4.6,2,1.4,0,2.9-.3,4.7-.9,.1,0,.3-.1,.4-.2,.8,.2,1.5,.4,2.3,.6,1.4,.4,2.8,.7,3.9,1.1,.1,.1,.3,.1,.4,.1,.3,0,.7-.2,.9-.5,.1-.2,.2-.5,.1-.7,1.9,1.3,4.1,2,6.4,2,.9,0,1.7-.1,2.6-.3,3.2-.7,5.9-2.3,7.5-4.3,.1-.1,.1-.2,.2-.2,.1-.1,.2-.3,.2-.4,.2,.2,.5,.5,.7,.6,0,.3,0,.6,.3,.8l.6,.6c2.4,1.9,5.1,2.9,7.8,2.9,2.3,0,4.5-.7,6.3-2l-.1,.1c-.4,.4-.4,.9-.1,1.3,.2,.3,.5,.4,.8,.4,.2,0,.3,0,.5-.1,.7-.4,1.9-.8,3.2-1.1,.7-.2,1.5-.5,2.2-.7l.2,.2c1.4,1,3,1.5,4.5,1.5,1.8,0,3.3-.7,4.3-1.9,.7-.9,1.5-2.5,1-5.1-.9-12.8-5.5-25.3-12.9-35.2,.2-.1,.3-.3,.4-.5,.3-.7,0-1.5-.2-2v-.1c.1-.1,.2-.3,.2-.5,.1-.5,0-1-.5-1.3-.1-.1-.2-.1-.4-.2-2.9-.6-4.6-3.5-5.2-4.8-1-2.4-2.5-4.7-4-6.9-1.2-3.5-1.9-6.7-2.3-10-.2-2.9-1.9-3.3-2.9-3.3-.4,0-.8,.1-1.2,.2-.3,.1-.6,.1-.9,.1-.8,0-1.5-.3-1.9-.7-.07-.07-.1-.13-.1-.2,.8,0,1.5-.4,1.9-1,1.4-2,1.5-2.3,1.5-3.7v-.9c1-.5,1.7-1.3,2-2.4,.3-1.4-.1-3-1.1-4.2,.1-.7-.1-1.4-.4-2-.8-1.2-2.4-2-3.9-2.4,.2-.1,.3-.3,.4-.5,.3-.7,.3-1.4-.2-2.1l-.1-.1c-.7-.7-1.3-.8-1.8-.8s-1,.2-1.4,.5c-.1-.7-.6-1.4-1.6-1.7C30.89,.1,30.79,0,30.59,0h0Zm6.7,28.7c.3-.2,.6-.3,.9-.3,.5,0,.8,.4,.9,.7,.3,.6,.4,1.7-.2,2.6-.2,.3-.2,.6-.1,.9,1.2,3.5,2.8,6.3,4.6,8.9-1.1-.5-2.2-.9-3.3-.9-1.6,0-3.3,.6-5,1.9-1.5-1.3-3.1-1.9-4.9-1.9-3.2,0-6.3,2-9.2,4.5,.8-1,1.6-2,2.4-3,.5-.6,1-1.2,1.5-1.8,0,0,0-.1,.1-.1,.8-1.3,1.7-3,2.5-4.6,.7-1.4,1.4-2.7,1.9-3.6,.1-.2,.2-.5,.1-.7-.2-1-.1-2,.3-2.4,.1-.1,.2-.2,.6-.2,.1,0,.3,0,.4,.1,1,.4,1.5,.8,1.9,1.1,.5,.4,1,.7,1.6,.7,.8,.1,1.6-.5,3-1.9h0Zm24.8,59v-.9c.3,.4,.4,.7,.5,1.1,.1,.3,.1,.8-.6,1.4-.2,.1-.4,.2-.6,.3,.4-.5,.6-1.2,.7-1.9h0Zm-56.1,1.4c-.4-.3-.6-.6-.6-.9-.1-.3,0-.6,.3-1-.1,.6,0,1.1,.2,1.6,0,.1,.1,.2,.1,.3h0Z"/>
  </g>
  <g>
    <path class="cls-1" d="M35.09,43.6c-.1,0-.2,0-.3-.1-1.3-1.1-2.5-2-4.1-2h-.4c-.2,0-.3-.1-.4-.3-.1-.2-.1-.4,.1-.5,1.9-2.5,1.8-4-.5-6.8-1.6-2.3-1.3-3.8-.9-4.5,.4-.8,1.3-1.3,2.4-1.3s2.3,.5,3.4,1.4c1.3-1,2.8-1.7,4-1.7,1,0,1.5,.4,1.7,.8,.6,.8,.5,2,0,3.7l-.3,.7c-.6,1.5-1.1,2.7-1.3,4.1-.2,1.2,.4,2.1,1.1,3,.1,.2,.3,.4,.4,.5,.1,.2,.1,.4,0,.5-.1,.2-.3,.3-.4,.3h-.1c-1.3,0-2.7,.7-3.9,1.9-.3,.2-.4,.2-.5,.3h0Z"/>
    <path d="M38.19,28.4c1.4,0,2.1,1,1.2,3.8-.7,1.8-1.3,3.2-1.6,4.9-.3,1.7,.8,2.8,1.6,3.9h-.1c-1.6,0-3.2,1-4.3,2-1.3-1.1-2.6-2.1-4.4-2.1h-.4c2.2-2.8,1.8-4.6-.5-7.4-2.1-3-1-5,1.1-5,1,0,2.2,.5,3.4,1.6,1.3-1,2.9-1.7,4-1.7m0-1c-1.1,0-2.6,.6-4,1.5-1.1-.8-2.3-1.3-3.4-1.3-1.2,0-2.3,.6-2.8,1.6-.4,.8-.8,2.4,.9,5l.1,.1c2.1,2.6,2.2,3.9,.5,6.1-.2,.3-.3,.7-.1,1.1,.2,.3,.5,.5,.9,.5h.4c1.4,0,2.5,.8,3.8,1.9,.2,.2,.4,.2,.6,.2,.3,0,.5-.1,.7-.3,1.1-1.1,2.4-1.8,3.6-1.8h.1c.4,0,.7-.2,.9-.5s.1-.7-.1-1c-.1-.2-.3-.4-.4-.5-.8-1-1.2-1.7-1.1-2.6,.2-1.4,.7-2.6,1.3-4l.3-.6h0c.6-1.9,.6-3.2,0-4.2-.4-.7-1-1.2-2.2-1.2h0Z"/>
  </g>
</svg>