<?xml version="1.0" encoding="UTF-8"?>
<svg id="Capa_1" data-name="Capa 1" xmlns="http://www.w3.org/2000/svg" viewBox="0 0 74.1 72.36">
  <defs>
    <style>
      .cls-1 {
        fill: #fefefe;
      }
    </style>
  </defs>
  <path d="M0,46.91c.4-.6,.5-1.5,1.2-1.9,1.1-.6,1.1-1.5,1.2-2.6,1.4-13.7,8.4-23.4,20.8-29.3,2.3-1.1,4.8-1.8,7.4-2.2,.2,0,.4-.1,.6-.1-2.3-3.8-.8-7.6,1.7-9.5,2.3-1.8,6-1.7,8.3,0,2.5,1.9,3.9,5.7,1.6,9.5,1.9,.4,3.7,.8,5.5,1.4,11.9,4.4,19.5,12.8,22.6,25.1,.5,2.1,.8,4.3,.9,6.4,0,.2-.1,.4,.1,.5,1.2,.6,1.8,1.6,2.2,2.8v1.7c-.5,2.5-2.5,3.3-4.4,3.4H35.5c-.4,0-.7,0-1.1-.1,1.2,.4,2.4,1,3.6,1.5,1.7,.9,3.5,1.7,5.2,2.6,.4,.2,.8,.3,1.2,.3h9c.8,0,.9-.1,.9-.9,0-.5,0-1.1,.2-1.6,.2-.7,.6-1.1,1.4-1.1h10.3c.9,0,1.4,.5,1.4,1.5v15.5c0,1.4-.5,1.9-1.9,1.9h-9.3c-.8,0-1.5-.2-1.9-1-.2-.4-.6-.3-.9-.2-1.7,.3-3.4,.6-5.1,.9-4.7,.7-9.5,1.1-14.3,.9-2-.1-4-.3-6-1-1.4-.5-2.9-.5-4.3-.7-2.9-.4-5.8-.8-8.8-1.2-.5-.1-.9-.2-1.3-.4-2.2-1.2-4.5-2.4-6.7-3.6-.8-.4-1.5-1-2-1.8-1-1.7-.9-3.6,.4-5,1.2-1.4,3.3-1.8,5-1l3,1.5c.2,.1,.3,.2,.6,.2-.5-.9-.8-1.8-.8-2.8,.1-1.8,1-3.1,2.6-3.9,1.7-.8,3.3-.5,4.7,.7,.6,.5,1,1.1,1.4,1.8,.8,1.3,1.6,2.6,2.4,3.9,.6,1,1.6,1.4,2.8,.8,.3-.1,.7-.2,.8-.6,0-.4-.4-.4-.7-.6-1.3-.8-2.4-1.8-3.4-2.9-.8-.9-1.4-1.9-1.3-3.1,0-.5-.2-.6-.7-.6H5c-1.1,0-2.2-.1-3.2-.8-1-.6-1.6-1.5-1.7-2.6L0,46.91h0Z"/>
  <path class="cls-1" d="M37,43.71H5.4c-.7,0-.8-.2-.8-.8,.3-4.8,1.6-9.4,4-13.6,5.2-8.9,12.8-14.5,23-16.3,8.2-1.4,16,.1,22.9,4.7,8,5.2,12.9,12.6,14.5,22.1,.2,1.1,.2,2.2,.4,3.3,.1,.5-.1,.6-.5,.5h-.4c-10.5,.1-21,.1-31.5,.1h0Z"/>
  <path class="cls-1" d="M33.2,59.11c-1.2-.6-2.3-1.2-3.4-1.8-1.3-.8-2.6-1.6-3.7-2.7-.4-.4-.7-.8-.9-1.3-.2-.6,0-.9,.6-1,1.6,0,3.2,.5,4.7,1,4.1,1.4,8,3.3,11.9,5.4,.4,.2,.9,.4,1.4,.4h10.1c.5,0,.7,.1,.7,.7v7.5c0,.4-.1,.6-.5,.7-6.4,1.1-12.9,2.1-19.5,1.9-2-.1-4.1-.3-6-1-1.1-.4-2.3-.4-3.5-.5-3.1-.4-6.2-.8-9.2-1.2-.4-.1-.8-.2-1.2-.4-2-1.1-4.1-2.2-6.2-3.3-.5-.2-.9-.5-1.2-1-.3-.6-.4-1.3,.1-1.8,.5-.6,1.1-.9,1.9-.6,1,.3,1.8,.8,2.6,1.3,2.1,1.4,4.3,1.9,6.8,1.7,2.8-.2,5.7-.1,8.5-.2,.2,0,.4,0,.6-.1,1.8-1.4,3.6-2.6,5.4-3.7h0Z"/>
  <path class="cls-1" d="M37,46.11h32.7c1.1,0,1.7,.4,1.9,1.2,.3,.9-.3,1.9-1.2,2.1-.3,.1-.7,.1-1,.1H4.6c-.4,0-.7,0-1.1-.1-.7-.2-1.3-1-1.2-1.7,.1-.8,.7-1.5,1.5-1.6H37Z"/>
  <path class="cls-1" d="M56.8,62.21v-6.4c0-.4,.1-.6,.6-.6h7c.5,0,.6,.2,.5,.6v12.7c0,.5-.1,.6-.6,.6h-6.9c-.5,0-.6-.2-.6-.6v-6.3h0Z"/>
  <path class="cls-1" d="M37.1,10.31c-.7,0-1.4-.1-2.1,0s-1.2-.2-1.6-.7c-1.3-1.7-1.3-4.1,.1-5.8,1.4-1.7,3.8-2.1,5.7-1.1s2.9,3.3,2.2,5.4c-.1,.4-.3,.7-.5,1-.5,.8-1,1.4-2.1,1.2-.5-.1-1.1,0-1.7,0h0Z"/>
  <path class="cls-1" d="M22.2,60.41h-4.1c-.3,0-.4-.1-.6-.3-.5-.8-.9-1.5-1.4-2.4-.6-1-.3-2.1,.6-2.6,.9-.6,2.1-.3,2.7,.7,.9,1.5,1.8,3,2.8,4.6h0Z"/>
  <path d="M33.5,17.61c0,.6-.4,1.1-1.4,1.2-1.6,.3-3.1,.7-4.6,1.3-5.5,2.1-9.8,5.6-12.9,10.5-.2,.2-.3,.5-.5,.7-.4,.6-1.1,.8-1.6,.5-.6-.4-.7-1-.3-1.7,.8-1.4,1.8-2.7,2.8-3.9,4.4-5.1,9.9-8.3,16.5-9.6,.3,0,.5-.1,.8-.1,.7-.1,1.3,.4,1.2,1.1h0Z"/>
</svg>