<?xml version="1.0" encoding="UTF-8"?>
<svg id="Capa_1" data-name="Capa 1" xmlns="http://www.w3.org/2000/svg" viewBox="0 0 403.1 361.46">
  <defs>
    <style>
      .cls-1 {
        fill: #fff;
      }
    </style>
  </defs>
  <g>
    <path class="cls-1" d="M267.01,356.48c-2.56,0-5.17-.5-7.77-1.48-7.92-2.99-12.7-9.12-13.85-17.74-.22-1.68-.21-3.31-.21-4.75v-38.62c0-35.42,0-72.05-.13-108.07,0-1.92-.45-4.03-.92-6.27-.53-2.54-1.08-5.17-1.13-8-.31-19.89-.43-40.91-.39-68.18,0-.97-.13-1.24-.13-1.24h0s-.18-.24-1.01-.7c-6.64-3.63-13.04-7.37-19.81-11.33-2.59-1.51-5.21-3.04-7.86-4.58-1.57-.91-2.52-2.59-2.49-4.4,.03-1.81,1.03-3.47,2.62-4.33,7.65-4.13,13.09-9.7,16.65-17.04,.6-1.24,1.7-2.18,3.02-2.59,.49-.15,.99-.23,1.48-.23,.86,0,1.71,.22,2.47,.65,.71,.41,1.43,.85,2.14,1.29,1.39,.86,3.29,2.04,4.13,2.04,.22,0,.88-.46,1.75-1.69,.94-1.34,2.47-2.12,4.09-2.12h.28c1.72,.1,3.28,1.08,4.11,2.59,4.5,8.24,9.96,13.68,17.18,17.12,1.1,.52,1.95,1.42,2.42,2.5,.72-.11,1.45-.16,2.16-.16,3.05,0,7.13,.98,10.97,5.04,1.78-1.17,3.77-1.76,5.94-1.76,3.21,0,6.21,1.39,8.47,2.6,3.99,2.14,8.27,4.07,12.41,5.95,1.98,.9,3.96,1.79,5.92,2.71,2.13,1,4.05,1.49,5.86,1.49,2.48,0,4.9-.96,7.38-2.92,11.19-8.85,19.17-20.7,25.5-31.13,.93-1.54,1.8-3.12,2.72-4.8,.4-.74,.81-1.48,1.22-2.21,3.74-6.72,9.52-10.28,16.71-10.28,.63,0,1.27,.03,1.92,.08,7.49,.64,13.03,4.84,16.04,12.15h0c.14,.2,.27,.38,.4,.57,.55,.82,.84,1.78,.84,2.77v6.74c0,.98-.28,1.91-.79,2.71-7.78,15.01-15.42,26.67-24.02,36.67-10.16,11.82-24.46,25.69-46.23,30.3v.86c.03,3.78,.07,7.69-.07,11.57-.09,2.5-.13,5.07-.17,7.57-.12,7.29-.24,14.83-1.62,22.22-1.37,7.34-1.38,14.61-1.38,22.3v3.54c-.15,28.28-.14,57.05-.14,84.87,0,14.24,0,28.48-.01,42.71,0,2.71-.06,5.86-.82,8.98-2.28,9.37-10.87,15.91-20.88,15.91-.5,0-.99-.02-1.49-.05-6.61-.43-12.46-3.98-16.03-9.24-.91,1.33-2.04,2.63-3.43,3.83-4.23,3.69-8.95,5.56-14.01,5.56v.02Z"/>
    <path d="M378.93,48.87c.49,0,.98,.02,1.49,.06,5.94,.51,9.79,3.89,11.95,9.34,.17,.42,.5,.78,.76,1.17v6.74h-.02c-6.64,12.84-14.12,25.1-23.59,36.12-12.56,14.62-26.87,26.33-47.46,29.38,0,5.5,.16,10.97-.04,16.42-.36,9.71,.06,19.59-1.71,29.05-1.67,8.98-1.43,17.84-1.48,26.73-.22,42.53-.1,85.07-.15,127.61,0,2.6-.07,5.29-.68,7.8-1.76,7.22-8.45,12.09-16.02,12.09-.39,0-.78-.01-1.17-.04-7.51-.49-13.82-6.35-14.87-13.93-.29-2.09-.37-4.22-.37-6.34-.02-42.04-.02-84.07-.02-126.11v-4.64c-.37-.1-.74-.2-1.11-.3-.41,.55-1.07,1.06-1.18,1.67-.2,1.09-.07,2.24-.07,3.36,0,42.54-.02,85.07,.06,127.61,.01,5.64-1.14,10.69-5.51,14.49-3.26,2.84-6.88,4.33-10.73,4.33-1.94,0-3.95-.38-6-1.15-6.25-2.36-9.78-7.1-10.66-13.72-.21-1.6-.16-3.24-.16-4.86-.02-48.65,.04-97.3-.13-145.94-.02-4.78-1.97-9.55-2.05-14.34-.35-22.69-.42-45.39-.39-68.09,0-3.18-.95-4.8-3.74-6.33-9.16-5.01-18.12-10.38-27.57-15.85,8.24-4.45,14.57-10.59,18.77-19.26,2.94,1.67,5.82,3.98,8.74,3.98,1.92,0,3.85-.99,5.84-3.81,4.71,8.62,10.72,15.09,19.42,19.24-2.43,1.96-6.17,2.98-3.72,7.62,3.62-3.06,7.15-4.79,10.46-4.79,3.69,0,7.09,2.16,9.99,7.06,.84-.23,1.18-.22,1.28-.37,1.75-2.48,3.62-3.41,5.64-3.41,1.9,0,3.92,.84,6.1,2,6.03,3.23,12.37,5.87,18.57,8.78,2.75,1.3,5.4,1.96,7.99,1.96,3.6,0,7.06-1.29,10.48-3.99,11.27-8.91,19.34-20.37,26.68-32.46,1.42-2.34,2.69-4.77,4.03-7.17,2.77-4.99,6.86-7.71,12.35-7.71m0-10c-8.99,0-16.48,4.57-21.09,12.85-.41,.74-.82,1.49-1.24,2.24-.89,1.62-1.73,3.16-2.6,4.6-6.1,10.05-13.76,21.45-24.33,29.8-2.09,1.65-3.44,1.84-4.28,1.84-1.05,0-2.3-.34-3.73-1.01-2.02-.95-4.04-1.86-6-2.75-4.25-1.92-8.27-3.74-12.11-5.8-2.76-1.48-6.5-3.19-10.83-3.19-1.48,0-3.22,.2-5.05,.81-4.1-3.16-8.29-4.05-11.63-4.09-.77-.75-1.67-1.38-2.66-1.85-6.31-3.01-10.92-7.64-14.95-15.01-1.66-3.03-4.76-4.99-8.21-5.19-.19,0-.38-.02-.57-.02-2.59,0-5.07,1.01-6.92,2.78-.15-.09-.29-.18-.42-.26-.69-.43-1.47-.91-2.3-1.38-1.52-.87-3.23-1.31-4.94-1.31-1,0-2,.15-2.97,.45-2.64,.82-4.83,2.7-6.03,5.19-3.12,6.45-7.74,11.16-14.52,14.82-3.19,1.72-5.19,5.03-5.25,8.65-.05,3.62,1.85,6.99,4.99,8.8,2.64,1.53,5.25,3.05,7.83,4.56,6.31,3.69,12.3,7.19,18.49,10.6-.03,26.52,.09,47.12,.39,66.6,.06,3.32,.68,6.32,1.24,8.96,.42,1.98,.81,3.86,.81,5.27,.13,36.06,.13,72.75,.13,108.23v38.4c0,1.6-.02,3.41,.25,5.43,1.39,10.42,7.44,18.15,17.04,21.77,3.16,1.19,6.37,1.8,9.53,1.8,6.22,0,12.2-2.35,17.3-6.8,.03-.03,.06-.06,.1-.08,4.25,3.85,9.74,6.32,15.75,6.71,.6,.04,1.21,.06,1.82,.06,12.32,0,22.91-8.11,25.74-19.72,.85-3.49,.96-6.95,.96-10.17,.02-14.17,.01-28.36,.01-42.54,0-27.87,0-56.69,.14-85.02v-3.55c0-7.46,.02-14.5,1.3-21.4,1.46-7.8,1.58-15.55,1.7-23.04,.04-2.58,.08-5.02,.17-7.46,.11-2.92,.12-5.83,.1-8.68,20.97-5.64,34.93-19.26,44.99-30.97,8.84-10.29,16.67-22.23,24.62-37.54,.9-1.52,1.4-3.27,1.4-5.1v-6.74c0-1.97-.58-3.9-1.68-5.55l-.18-.27c-3.78-8.68-10.84-13.87-19.99-14.66-.8-.07-1.58-.1-2.35-.1h0l.03,.03Z"/>
  </g>
  <g>
    <path class="cls-1" d="M132.04,356.17c-7.12,0-13.72-3.71-17.6-9.35-2.64,4.06-6.59,7-11.58,8.46-2,.59-4.07,.88-6.13,.88-11.09,0-20.29-8.37-21.39-19.47-.15-1.5-.15-2.91-.14-4.28v-1.04c0-41.19,0-82.36-.01-123.52,0-6.61-.05-13.72-.17-22.38,0-.49-.13-1.19-.27-1.92-.06-.33-.12-.67-.18-1-.22-1.27-.49-2.57-.78-3.95-.67-3.18-1.35-6.46-1.45-9.94-.23-8.31-.18-16.53-.14-24.47,.01-1.94,.02-3.86,.03-5.75-1.45-.63-2.87-1.24-4.27-1.84-4.92-2.1-9.57-4.08-13.96-6.69-16.56-9.86-27.91-24.82-36.83-38.15-3.49-5.2-6.48-10.72-9.38-16.05l-.08-.15c-2.77-5.09-3.46-10.67-1.95-15.7,1.42-4.71,4.69-8.64,9.23-11.05,2.84-1.51,5.83-2.27,8.9-2.27,7,0,13.4,4.08,17.13,10.93,7.49,13.76,14.79,24,22.96,32.24,3.4,3.42,5.78,5.28,8.65,5.28,.33,0,.68-.02,1.03-.07,1.92-.26,3.92-.83,5.77-1.65,6.67-2.96,13.8-6.18,20.76-9.68,2.24-1.13,4.15-1.66,6-1.66,1.75,0,4.14,.49,6.41,2.6,.03-.02,.06-.03,.08-.05,2.7-1.54,5.25-3,8.05-4.2,1-.43,2.13-.65,3.35-.65,1.9,0,4.05,.56,5.75,1.49,2.9,1.59,5.75,3.29,8.5,4.93,2.4,1.44,4.89,2.92,7.35,4.29,1.3,.72,2.83,1.31,4.59,2,.94,.36,1.91,.74,2.93,1.17,1.86,.78,3.07,2.6,3.07,4.61v3.58c0,5.71,0,11.43,.02,17.14,.03,14.63,.06,29.77-.11,44.66-.05,4.21-.67,8.3-1.26,12.26-.27,1.82-.53,3.55-.74,5.28-.06,.5-.13,1.01-.2,1.52-.17,1.23-.33,2.4-.33,3.43v83.28c0,20.89,0,41.78,0,62.66,0,13.22-6.66,21.94-18.27,23.93-1.12,.19-2.26,.29-3.4,.29l.05,.02Z"/>
    <path d="M23.91,51.53c5.01,0,9.79,2.91,12.74,8.32,6.59,12.1,14.05,23.54,23.8,33.37,3.48,3.51,7.11,6.76,12.2,6.76,.55,0,1.12-.04,1.71-.12,2.42-.33,4.87-1.04,7.11-2.03,7.06-3.13,14.1-6.32,20.99-9.79,1.37-.69,2.61-1.12,3.75-1.12,1.41,0,2.69,.65,3.92,2.27,.51,.67,1.3,1.14,1.73,1.51h0c3.92-2.16,7.27-4.29,10.87-5.83,.4-.17,.87-.24,1.38-.24,1.14,0,2.43,.37,3.35,.87,5.35,2.93,10.49,6.24,15.82,9.21,2.37,1.32,5.01,2.15,8.03,3.41v3.58c0,20.58,.15,41.17-.09,61.75-.07,5.68-1.29,11.34-1.97,17.01-.22,1.85-.56,3.7-.56,5.55,0,48.65,.02,97.3,.02,145.94,0,10.85-4.93,17.43-14.11,19-.85,.15-1.71,.22-2.56,.22-7.44,0-14.42-5.39-15.88-12.87-.45-2.3-.55-4.71-.56-7.07-.03-42.29-.01-84.57-.07-126.86,0-1.41-.69-2.82-1.06-4.23-.41,1.37-1.19,2.73-1.19,4.1-.06,42.91-.04,85.82-.06,128.73,0,8.95-4.34,15.34-11.75,17.5-1.59,.46-3.17,.68-4.73,.68-8.25,0-15.54-6.2-16.41-14.96-.16-1.61-.11-3.24-.12-4.86,0-41.16,0-82.33-.01-123.49,0-7.48-.07-14.97-.17-22.45-.02-1.22-.31-2.44-.51-3.66-.75-4.4-2.04-8.79-2.16-13.21-.31-11.46-.1-22.93-.1-33.32-7.73-3.54-14.57-5.96-20.68-9.59-15.02-8.94-25.67-22.34-35.23-36.63-3.39-5.06-6.31-10.45-9.22-15.81-4.24-7.79-1.97-16.12,5.23-19.95,2.14-1.14,4.37-1.69,6.55-1.69m0-10c-3.89,0-7.67,.96-11.24,2.86-5.73,3.05-9.87,8.03-11.67,14.03-1.9,6.32-1.06,13.26,2.35,19.53l.08,.14c2.95,5.43,6,11.05,9.62,16.45,9.23,13.79,21.01,29.29,38.42,39.66,4.69,2.79,9.48,4.83,14.56,7,.4,.17,.81,.34,1.21,.52,0,.81,0,1.62-.01,2.44-.04,7.98-.09,16.24,.14,24.63,.11,3.92,.87,7.59,1.55,10.83,.28,1.32,.54,2.57,.74,3.77,.06,.35,.12,.7,.19,1.05,.07,.4,.17,.94,.19,1.15,.11,8.6,.17,15.68,.17,22.26v124.55c0,1.42,0,3.03,.17,4.79,1.35,13.67,12.69,23.98,26.36,23.98,2.54,0,5.07-.37,7.54-1.09,3.95-1.15,7.4-3.1,10.23-5.7,4.72,4.22,10.94,6.8,17.53,6.8,1.42,0,2.85-.12,4.24-.36,14.05-2.4,22.43-13.19,22.43-28.86,0-20.85,0-41.69,0-62.54,0-27.8,0-55.6,0-83.4,0-.69,.14-1.7,.28-2.76,.07-.54,.15-1.08,.21-1.61,.2-1.65,.45-3.34,.72-5.13,.62-4.12,1.26-8.39,1.32-12.94,.17-14.94,.14-30.09,.11-44.74,0-5.71-.02-11.42-.02-17.13v-3.58c0-4.04-2.43-7.68-6.15-9.23-1.09-.46-2.13-.86-3.05-1.21-1.59-.62-2.97-1.15-3.97-1.7-2.39-1.33-4.73-2.73-7.21-4.21-2.79-1.67-5.68-3.4-8.67-5.03-2.43-1.34-5.41-2.1-8.15-2.1-1.9,0-3.7,.36-5.33,1.06-2.06,.88-4,1.89-5.87,2.93-2.61-1.4-5.09-1.7-6.7-1.7-3.51,0-6.39,1.25-8.26,2.2-6.86,3.45-13.92,6.64-20.54,9.57-1.41,.63-2.94,1.06-4.41,1.26-.13,.02-.25,.03-.36,.03-1.17,0-3.14-1.83-5.1-3.8-7.83-7.89-14.86-17.78-22.12-31.11-4.62-8.48-12.67-13.54-21.52-13.54h0v-.02Z"/>
  </g>
  <g>
    <path class="cls-1" d="M179.72,356.38c-10.96,0-20.32-8.51-21.32-19.38-.15-1.58-.14-3.08-.14-4.54v-26.51c0-39.4,0-80.15-.11-120.22,0-1.74-.43-3.69-.89-5.75-.51-2.32-1.04-4.72-1.12-7.32-.36-12.22-.47-24.62-.56-36.61l-.06-6.88c-.03-3.66-.03-7.32-.02-10.99,0-5.23,.02-10.64-.09-15.93-.04-.06-.08-.14-.12-.19-7.17-4.29-14.36-8.42-21.97-12.78-2.12-1.21-4.25-2.44-6.41-3.68-1.55-.89-2.51-2.55-2.51-4.34s.96-3.44,2.52-4.33c8.08-4.62,13.31-10.01,16.46-16.98,.56-1.25,1.61-2.21,2.9-2.66,.54-.19,1.1-.28,1.65-.28,.78,0,1.56,.18,2.27,.55,.98,.5,1.89,1.04,2.77,1.56,1.32,.78,3.13,1.86,3.89,1.86,.03,0,.62-.22,1.61-1.75,.93-1.42,2.5-2.27,4.19-2.27h.23c1.77,.08,3.36,1.09,4.19,2.66,4.31,8.15,9.82,13.66,17.34,17.35,1.02,.5,1.82,1.32,2.3,2.31,.77-.12,1.54-.18,2.29-.18,3.15,0,7.36,1.02,11.17,5.32,2.53-1.35,4.95-2.62,7.52-3.7,1-.43,2.14-.65,3.38-.65,1.73,0,3.58,.44,5.05,1.21,3.26,1.69,6.51,3.48,9.65,5.21,3.29,1.81,6.7,3.68,10.07,5.42,4.97,2.57,4.88,7.02,4.83,9.17-.13,7.11-.1,14.41-.06,21.46,.08,16.05,.15,32.65-1.69,48.91-2.13,18.91-2.1,38.22-2.08,56.9,0,7.47,.02,15.19-.1,22.8-.3,18.05-.24,36.44-.18,54.22,.03,8.6,.06,17.19,.05,25.79v.72c0,2.37,0,5.05-.53,7.72-1.9,9.51-10.85,16.73-20.82,16.77-7.29,0-13.91-3.65-17.81-9.31-2.6,3.95-6.47,6.83-11.42,8.37-2.06,.64-4.2,.97-6.34,.97l.02-.02Z"/>
    <path d="M162.67,61.94c4.73,8.94,10.91,15.26,19.56,19.5-2.74,1.73-6.04,2.83-3.98,7.43,3.71-3,7.38-4.79,10.77-4.79,3.62,0,6.93,2.03,9.64,6.78,4.06-2.1,7.43-4.05,10.99-5.55,.41-.18,.91-.25,1.44-.25,.95,0,1.99,.25,2.74,.64,6.63,3.45,13.1,7.21,19.74,10.64,2.17,1.12,2.17,2.71,2.13,4.62-.43,23.32,.89,46.84-1.72,69.91-3.02,26.79-1.77,53.46-2.21,80.18-.44,26.69-.1,53.39-.13,80.09,0,2.49,.06,5.04-.43,7.45-1.47,7.35-8.35,12.74-15.94,12.77h-.07c-7.61,0-14.35-5.2-15.98-12.6-.51-2.29-.62-4.7-.62-7.05-.04-42.54-.02-85.08-.06-127.62,0-1.33-.47-2.67-.72-4-.52,.08-1.04,.17-1.57,.25l.03,.02v132.74c0,9.05-4.14,15.19-11.7,17.54-1.62,.5-3.26,.74-4.86,.74-8.19,0-15.55-6.21-16.34-14.84-.16-1.73-.11-3.49-.12-5.24,0-48.53,.04-97.06-.11-145.59,0-4.41-1.88-8.79-2.01-13.21-.43-14.46-.49-28.92-.62-43.39-.08-9.11,.08-18.22-.12-27.32-.03-1.35-1.18-3.21-2.36-3.92-9.3-5.57-18.72-10.91-28.64-16.62,8.01-4.58,14.55-10.46,18.53-19.26,3.01,1.54,5.98,3.97,8.94,3.97,1.93,0,3.86-1.03,5.8-4.02m0-10c-2.67,0-5.2,1.06-7.06,2.91-.03-.02-.06-.03-.09-.05-.91-.54-1.93-1.15-3.05-1.72-1.42-.72-2.98-1.09-4.54-1.09-1.12,0-2.23,.19-3.31,.56-2.58,.9-4.68,2.83-5.8,5.32-2.73,6.04-7.17,10.57-14.38,14.7-3.11,1.78-5.03,5.08-5.04,8.67,0,3.58,1.91,6.89,5.01,8.68,2.16,1.24,4.3,2.47,6.42,3.69,6.78,3.89,13.23,7.59,19.62,11.39,.06,4.39,.05,8.84,.05,13.17,0,3.61,0,7.34,.02,11.04,.02,2.3,.04,4.6,.06,6.89,.1,12.01,.2,24.44,.57,36.71,.09,3.08,.7,5.83,1.23,8.25,.4,1.79,.77,3.49,.77,4.68,.12,40.08,.12,80.83,.11,120.25v26.47c0,1.5,0,3.2,.16,5.01,.61,6.65,3.71,12.77,8.72,17.21,4.87,4.33,11.11,6.71,17.58,6.71,2.65,0,5.28-.4,7.83-1.19,3.87-1.2,7.22-3.11,9.97-5.6,4.73,4.22,10.99,6.77,17.68,6.77h.09c12.5-.05,23.32-8.8,25.72-20.81,.64-3.14,.63-6.09,.63-8.7v-.71c0-8.6-.02-17.35-.05-25.81-.06-17.76-.12-36.12,.18-54.12,.13-7.67,.11-15.41,.1-22.9-.03-18.53-.06-37.7,2.04-56.32,1.87-16.54,1.79-33.29,1.72-49.48-.03-7.03-.07-14.29,.06-21.36,.05-2.38,.2-9.69-7.54-13.69-3.31-1.71-6.68-3.56-9.95-5.36-3.17-1.74-6.45-3.54-9.76-5.27-2.19-1.14-4.8-1.77-7.35-1.77-1.92,0-3.72,.35-5.36,1.05-1.62,.68-3.17,1.43-4.71,2.21-4.49-3.55-9.1-4.24-11.99-4.24h-.02c-.7-.64-1.5-1.19-2.37-1.62-6.61-3.24-11.28-7.93-15.12-15.2-1.66-3.13-4.85-5.15-8.39-5.31-.15,0-.3,0-.45,0h-.01Z"/>
  </g>
  <g>
    <path class="cls-1" d="M199.31,86.96c-10.85-.06-21.11-4.43-28.89-12.32-7.75-7.85-11.97-18.11-11.88-28.87,.19-22.48,18.69-40.77,41.24-40.77h.33c21.99,.18,40.57,18.94,40.57,40.97s-18.4,40.91-41.03,40.98h-.34Z"/>
    <path d="M199.78,10h.29c19.39,.16,35.61,16.55,35.61,35.97s-16.38,35.98-36.16,35.98h-.18c-19.61-.09-35.96-16.6-35.8-36.14,.17-19.72,16.49-35.81,36.24-35.81m0-10c-25.28,0-46.02,20.51-46.24,45.73-.1,12.11,4.63,23.62,13.32,32.43,8.73,8.84,20.24,13.75,32.43,13.81h.05c.15,0,.3,0,.45-.01,12.13-.07,23.58-4.86,32.27-13.51,8.78-8.73,13.61-20.26,13.61-32.47s-4.77-23.5-13.43-32.24C223.59,4.98,212.19,.1,200.15,0h-.37Z"/>
  </g>
  <g>
    <path class="cls-1" d="M111.4,86.93c-10.62-.22-20.67-4.72-28.29-12.69-7.56-7.9-11.76-18.5-11.5-29.08,.54-22.52,18.79-40.15,41.55-40.15,.33,0,.65,0,.98,.01,21.87,.5,39.96,19.54,39.52,41.57,0,.11,0,.23-.02,.34-.64,22.46-18.74,40.01-41.35,40.01h-.89Z"/>
    <path d="M113.15,10.01h.87c19.07,.44,35.02,17.24,34.63,36.47h0c-.41,19.91-16.42,35.45-36.36,35.45h-.78c-19.26-.39-35.36-17.3-34.9-36.65,.47-19.71,16.69-35.27,36.55-35.27M113.16,.01h0c-12.22,0-23.76,4.63-32.49,13.04-8.78,8.45-13.77,19.81-14.06,31.99-.28,11.9,4.42,23.8,12.89,32.66,8.55,8.94,19.85,13.99,31.8,14.23h.98c25.3,0,45.56-19.61,46.35-44.73,0-.17,.02-.34,.02-.51C159.15,21.96,138.82,.59,114.25,.02c-.37,0-.73,0-1.09,0h0Z"/>
  </g>
  <g>
    <path class="cls-1" d="M286.14,86.93c-.36,0-.72,0-1.09-.01-21.85-.54-39.93-19.58-39.47-41.58,0-.11,0-.22,.02-.33,.64-22.45,18.76-39.99,41.4-39.99h.86c10.42,.2,20.72,4.83,28.24,12.7,7.59,7.94,11.79,18.55,11.52,29.12-.57,22.48-18.79,40.09-41.48,40.1h0Z"/>
    <path d="M287,10.01h.76c19.19,.37,35.35,17.38,34.86,36.69-.5,19.72-16.66,35.22-36.48,35.22-.32,0-.64,0-.96-.01-19.12-.47-35-17.23-34.6-36.48h0c.41-19.89,16.46-35.43,36.41-35.43m.01-9.99h0c-25.33,0-45.61,19.6-46.4,44.71,0,.17-.02,.34-.02,.51-.51,24.7,19.8,46.08,44.35,46.68,.4,.01,.8,.02,1.21,.02,12.2,0,23.72-4.62,32.42-13.01,8.75-8.43,13.74-19.78,14.05-31.95,.3-11.89-4.4-23.81-12.9-32.7C311.27,5.44,299.7,.25,287.95,.02h-.95Z"/>
  </g>
  <g>
    <path class="cls-1" d="M326.18,100.57c-2.31,0-4.59-.46-6.79-1.37-5.51-2.29-10.84-4.79-16.48-7.44-2.55-1.2-5.15-2.42-7.85-3.66-1.85-.85-3-2.75-2.91-4.79s1.43-3.81,3.36-4.48c9.03-3.13,15.52-8.21,20.41-16,.92-1.46,2.51-2.34,4.23-2.34,.74,0,1.49,.17,2.16,.49,1.32,.63,2.6,1.22,3.85,1.8,2.85,1.32,5.55,2.56,8.23,4.01,8.48,4.62,11.92,14.54,8,23.08-3.03,6.6-9.24,10.7-16.21,10.7h0Z"/>
    <path d="M320.16,65.49c4.24,2.02,8.14,3.68,11.84,5.69,6.26,3.41,8.65,10.48,5.84,16.6-2.21,4.82-6.74,7.79-11.66,7.79-1.61,0-3.25-.32-4.87-.99-7.88-3.27-15.54-7.07-24.16-11.03,10.18-3.53,17.54-9.37,23-18.06h.01m0-10h-.01c-3.44,0-6.64,1.77-8.47,4.68-4.31,6.86-9.8,11.16-17.81,13.93-3.86,1.34-6.51,4.89-6.71,8.96-.2,4.08,2.1,7.87,5.81,9.57,2.68,1.23,5.29,2.46,7.82,3.65,5.7,2.68,11.07,5.21,16.69,7.53,2.8,1.16,5.73,1.75,8.7,1.75,8.81,0,16.96-5.35,20.75-13.62,5.03-10.95,.67-23.66-10.15-29.55-2.83-1.54-5.6-2.81-8.53-4.17-1.24-.57-2.5-1.15-3.8-1.77-1.34-.64-2.81-.97-4.3-.97h0Z"/>
  </g>
  <g>
    <path class="cls-1" d="M72.77,100.55c-7.05,0-13.48-4.25-16.39-10.83-3.77-8.54-.24-18.42,8.21-22.99,2.53-1.36,5.03-2.51,7.67-3.73,1.14-.53,2.3-1.06,3.48-1.62,.69-.33,1.42-.48,2.14-.48,1.63,0,3.21,.8,4.17,2.23,5.35,8.06,11.99,13.05,20.91,15.73,1.99,.6,3.4,2.36,3.55,4.44,.15,2.07-1,4.02-2.89,4.89-2.63,1.21-5.14,2.4-7.59,3.56-5.6,2.64-10.89,5.14-16.31,7.4-2.24,.94-4.58,1.41-6.96,1.41h0Z"/>
    <path d="M77.89,65.9c5.65,8.51,13,14.56,23.64,17.75-8.61,3.98-16.07,7.68-23.73,10.88-1.67,.7-3.37,1.02-5.03,1.02-5.03,0-9.67-3-11.81-7.85-2.69-6.09-.19-13.22,6.01-16.57,3.47-1.87,7.11-3.42,10.92-5.23m0-10c-1.44,0-2.91,.31-4.29,.97-1.16,.55-2.3,1.07-3.42,1.59-2.6,1.2-5.29,2.43-7.95,3.87-10.78,5.82-15.25,18.47-10.41,29.41,3.7,8.39,11.93,13.81,20.96,13.81,3.04,0,6.03-.6,8.88-1.79,5.53-2.31,10.87-4.83,16.52-7.49,2.44-1.15,4.94-2.33,7.56-3.54,3.77-1.74,6.07-5.64,5.78-9.79s-3.12-7.68-7.1-8.87c-7.84-2.35-13.45-6.58-18.18-13.7-1.91-2.87-5.08-4.47-8.34-4.47h0Z"/>
  </g>
</svg>