<?xml version="1.0" encoding="UTF-8"?>
<svg id="Capa_1" data-name="Capa 1" xmlns="http://www.w3.org/2000/svg" viewBox="0 0 71.81 91.18">
  <defs>
    <style>
      .cls-1 {
        fill: #f0f0f0;
      }

      .cls-2 {
        fill: #fdfdfd;
      }

      .cls-3 {
        fill: #010101;
      }

      .cls-4 {
        fill: #fefefe;
      }
    </style>
  </defs>
  <path d="M37.27,14.37c-1,.9-1.9,1-2.9,0-.8,2.5-1.6,4.8-2.7,7.1-4.8,10.2-12.5,17.1-23.5,20.2-.9,.2-1.1,.4-.7,1.3,1.8,4,2.5,8.3,3,12.6,1.2,11.4,.8,22.8,.9,34.2,0,1-.4,1.3-1.3,1.3-2.3,0-4.6-.1-6.9,0-1.2,0-1.5-.4-1.5-1.6V46.77c0-.7,.1-1.2-1-1.6-1.2-.5-.4-2.1-.5-3.2-.1-.5,0-1.1,.6-1.1,1,0,.9-.6,.9-1.3-.3-7.5,1.4-14.5,5.5-20.8,4.8-7.3,11.5-12.1,19.9-14.5,.5-.1,.9-.2,1.1-.9,1-3.5,4.4-4.4,7-1.9,.5,.5,.7,.7,1.4,.1,2.6-2.7,6-1.8,7.1,1.8,.2,.6,.5,.7,1,.9,13.3,4,21.6,12.7,24.8,26.2,.7,3,.7,6.1,.7,9.2,0,.6,.1,.9,.8,1.1,1.5,.6,.5,2.2,.7,3.3,.1,.5,.1,1.3-.8,1.3-.7,0-.8,.4-.8,.9v43.1c0,1.13-.57,1.7-1.7,1.7h-6.6c-1,0-1.4-.3-1.4-1.3,0-10.7-.3-21.3,.6-32,.4-5.1,1.1-10.3,3.3-15,.3-.6,.2-.8-.4-.9-13.5-3.2-21.2-12.4-25.7-25-.4-.9-.6-1.6-.9-2.5h0Z"/>
  <path d="M35.77,90.97h-9.1c-1.3,0-1.6-.4-1.3-1.7,.5-2.4,2.4-3.9,4.9-4,1.8,0,2.7-1,2.7-2.8v-2.2c-.1-1,.5-2.4-.2-2.9-1.2-1-2.7-1.8-4.4-1.9-1.6-.1-3,.3-4.3,1.1-2,1.3-4.2,1.6-6.6,.9-1.8-.5-2.5-1.6-2.3-3.4,.6-4.4,1.2-8.8,1.9-13.1,.2-1.4,.4-2.8,.6-4.2,.3-2.3,1.3-3.2,3.6-3.1,1.2,.1,1.7-.2,1.5-1.5-.1-.4-.1-.8,0-1.2,.1-1.1-.1-1.8-1.2-2.3-1-.4-1.4-1.5-1.4-2.6,.1-2,.4-4.1,.6-6.1,.1-.7,.4-.9,1.1-.9h3.2c.8,0,1.1,.3,1.2,1.1,.2,1.8,.4,3.6,.6,5.4,.1,1.6-.5,2.8-1.9,3.5-.4,.2-.6,.4-.6,.9v3.1c0,.6,.2,.8,.7,.7h.1c1.33,.07,2.17-.57,2.5-1.9,1-3.6,3-6.4,6.8-7.3,.5-.1,.8-.3,.7-.9v-.7c0-.5,.2-.9,.7-1,.5,0,.8,.4,.8,.9-.2,1.2,.4,1.6,1.5,1.9,3.6,1.1,5.4,3.9,6.2,7.5,.1,.5,0,1.3,.4,1.4,.9,.2,1.9,.1,2.8,.1,.3,0,.2-.4,.2-.6v-1.7c.1-1.1,.1-2.1-1.3-2.7-1-.5-1.4-1.7-1.3-2.9,.2-1.9,.4-3.8,.6-5.6,.1-.6,.3-1,1-1h3.4c.7,0,1,.3,1,.9,.2,1.9,.5,3.8,.6,5.7,.1,1.4-.5,2.6-1.9,3.2-.7,.3-.8,.7-.7,1.3v1c0,.7-.2,1.6,.1,2.2,.4,.6,1.4,.2,2.1,.3,1.4,.2,2.4,1.1,2.6,2.7,.9,5.8,1.7,11.7,2.5,17.5,.3,2.4-.6,3.5-2.9,3.9-2,.4-3.9,.1-5.6-.9-3.1-2-6-1.5-8.9,.4-.4,.3-.4,.6-.4,.9v6.4c0,.7,.3,.8,.9,.8h2c2.5,.1,4.5,1.8,4.8,4.2,.1,1-.2,1.5-1.2,1.4-3.2-.2-6.3-.2-9.4-.2h0Z"/>
  <path class="cls-4" d="M68.57,37.47v.6c0,2.9,0,3-3,2.5-5.6-.9-10.7-3.3-15-7.1-6-5.3-9.5-12.1-11.8-19.6-.1-.5,0-.7,.3-1.1,2-1.9,3.6-4.1,4.4-6.8,.2-.8,.7-.4,1.1-.3,5.9,1.6,11,4.7,15.1,9.1,5.8,6.4,8.8,14,8.9,22.7h0Z"/>
  <path class="cls-4" d="M3.07,37.27c.1-14.8,9.9-27.6,23.9-31.6,.7-.2,1.1-.3,1.4,.7,.7,2.5,2.3,4.4,4,6.2,.4,.4,.7,.6,.5,1.3-2.8,9.1-7.5,16.8-15.7,22-3.3,2.1-6.9,3.5-10.7,4.5-1,.2-2,.1-2.9,.1-.5,0-.5-.2-.5-.6v-2.6h0Z"/>
  <path class="cls-4" d="M3.07,66.77v-21.5c0-.8,0-1.5-1.1-1.5-.7,0-.3-.7-.4-1.1-.1-.4,.2-.5,.6-.5,4,0,3.2-.8,4.6,3,1.6,4.2,2.1,8.7,2.5,13.1,.8,10.1,.5,20.2,.6,30.2,0,.8-.2,1-1,1-1.6-.1-3.2-.1-4.8,0-.9,0-1-.3-1-1.1v-21.6h0Z"/>
  <path class="cls-4" d="M61.87,74.67c0-6.9,.1-13.9,1-20.7,.5-3.6,1.2-7.2,2.6-10.6,.4-.9,.9-1.4,1.9-1.2,.6,.1,1.1,0,1.7,.1,.4,0,1-.3,.9,.5,0,.5,.2,1.1-.7,1.1-.5,0-.8,.4-.8,.9v43.1c0,1.1-.6,1.7-1.8,1.7-1.3,0-2.6-.1-3.9,0-.8,0-1-.2-1-1,.1-4.7,0-9.3,.1-13.9h0Z"/>
  <path class="cls-4" d="M42.17,4.17c0,1.1-.3,2-.8,2.9-1.2,2.4-2.9,4.4-5,6-.3,.2-.6,.5-1.1,.2-2.6-2.1-4.9-4.5-5.8-7.9-.5-1.8,.2-3.2,1.5-3.7,1.4-.5,3,.4,3.8,2,0,.1,.1,.2,.1,.3,.1,.4,.3,.8,.8,.7,.4,0,.6-.3,.7-.7,.2-.8,.7-1.4,1.4-1.9,.8-.6,1.8-.9,2.8-.4,1.2,.5,1.5,1.5,1.6,2.5h0Z"/>
  <path class="cls-4" d="M18.87,58.47c.2-2.3,1.4-3.4,3.5-3.4,9.2,.1,18.4,.1,27.7,0,2,0,2.8,.9,2.7,3,0,.6-.5,.4-.7,.4h-3.7c-.6,0-1.2,0-1.1,.8,0,.7,.6,.7,1.2,.7h3.9c.5,0,.7,.1,.8,.7,.6,4.5,1.3,8.9,1.9,13.4,.2,1.5-.2,1.9-1.7,2.2-1.7,.3-3.3,0-4.8-.9-3-1.9-6.1-1.9-9.1,0-2.3,1.4-4.7,1.4-7.1,0-3.1-1.9-6.1-1.9-9.1,0-1.7,1.1-3.5,1.3-5.4,.7-.8-.2-1.3-.7-1.1-1.6,.7-4.7,1.3-9.3,2-14,.1-.7,.5-.5,.9-.5h24.3c.4-.1,.6-.4,.6-.8s-.3-.6-.6-.6H20.47c-.7-.1-1.1-.1-1.6-.1h0Z"/>
  <path class="cls-4" d="M35.77,53.57h-6.3c-.6,0-.9-.1-.7-.8,.4-2.4,1.4-4.4,3.3-5.8,2.3-1.7,5.1-1.6,7.4,.1,1,.8,1.8,1.7,2.3,2.8,.6,1.1,1.3,2.4,.8,3.5-.3,.7-1.9,.2-3,.2h-3.8Z"/>
  <path class="cls-2" d="M35.77,89.47h-8c-1,0-1-.4-.6-1,.7-1,1.6-1.6,2.8-1.7h11.4c.7,0,1.4,.2,1.9,.7,.6,.4,1.3,1.1,1.1,1.8-.2,.6-1.1,.2-1.6,.2h-7Z"/>
  <path class="cls-2" d="M23.37,40.57c1.1-.3,1.3,.2,1.4,1.2,.1,1.3,.3,2.5,.4,3.8,.1,1.4-.6,2.2-1.9,2.2-1.2-.1-1.8-.9-1.7-2.3,.1-1.2,.4-2.3,.4-3.5s.3-1.8,1.4-1.4h0Z"/>
  <path class="cls-2" d="M48.37,40.57c1.2-.3,1.5,.3,1.5,1.3,0,1.2,.2,2.4,.4,3.5,.2,1.4-.5,2.3-1.7,2.3-1.3,0-2-.7-1.9-2.1,.1-1.3,.3-2.5,.4-3.8,0-1,.2-1.6,1.3-1.2h0Z"/>
  <path class="cls-1" d="M37.17,81.57v2.8c0,.6-.2,.8-.8,.9-1.27,.07-1.9-.53-1.9-1.8v-4.8c0-.7,.2-.9,.9-.8,1.2,.07,1.8,.7,1.8,1.9v1.8h0Z"/>
  <path class="cls-3" d="M64.77,31.07c0,.3-.1,.6-.5,.7-.5,.1-.8-.1-.9-.6-.2-.7-.4-1.5-.6-2.2-2.8-8.7-8.5-14.8-17-18.2-.2-.1-.5-.2-.7-.3-.4-.2-.7-.5-.5-1s.6-.5,1-.4,.9,.3,1.3,.5c9.3,3.9,15.2,10.8,17.8,20.6,0,.3,0,.6,.1,.9h0Z"/>
  <path class="cls-3" d="M6.87,30.87c.8-3.6,2.2-7,4.3-10.1,3.6-5.3,8.3-9.1,14.3-11.3,.2-.1,.5-.2,.7-.2,.4-.1,.8,0,1,.4,.1,.4-.1,.7-.4,.9-.2,.1-.5,.2-.8,.3-9.1,3.6-14.9,10.2-17.4,19.7-.1,.2-.1,.5-.2,.7-.1,.4-.5,.7-.9,.6-.5-.2-.7-.5-.6-1h0Z"/>
</svg>