<?xml version="1.0" encoding="UTF-8"?>
<svg id="Capa_1" data-name="Capa 1" xmlns="http://www.w3.org/2000/svg" viewBox="0 0 41.23 4.35">
  <defs>
    <style>
      .cls-1 {
        fill: #231f20;
      }
    </style>
  </defs>
  <path class="cls-1" d="M40.89,3.17c-.14,.26-.35,.45-.59,.58,.21-.3,.35-.73,.16-1.06-.19-.34-.73-.42-1.06-.27-.39,.18-.37,.6-.14,.9,.14,.19,.46,0,.32-.19-.26-.35,.15-.48,.41-.38,.29,.12,.19,.46,.08,.67-.18,.35-.51,.52-.89,.56,0,0,0,0-.01,0-.21,0-.43-.04-.62-.08-.68-.16-1.29-.5-1.89-.86,1.27-.17,2.37-.84,3.18-1.83,.15-.18-.11-.44-.26-.26-.8,.99-1.9,1.65-3.19,1.75-.09,0-.18,.01-.27,.01-.03,0-.06,0-.09,0-.43,0-.86-.04-1.28-.11,.03-.28,0-.56-.12-.81-.04-.09-.09-.18-.15-.25,.42,.13,.83,.24,1.23,.28,.71,.07,1.52,.15,2.03-.46,.26-.31,.51-1.03,.08-1.33-.2-.14-.38,.18-.19,.32,.04,.03,.04,.24,.04,.29-.02,.2-.13,.39-.26,.53-.29,.31-.66,.31-1.06,.3-.84-.01-1.57-.22-2.36-.48-1.17-.39-2.38-.53-3.33,.4-1.04-.34-2.09-.68-3.15-.95-1.18-.3-2.43-.42-3.56,.08-.75,.33-1.37,.88-1.84,1.53-.28,.35-.49,.78-.71,1.13-.07,.11,0,.22,.09,.26,.08,.07,.21,.08,.26-.04,.11-.24,.23-.47,.36-.69,.11-.19,.23-.37,.37-.53,.3-.36,.74-.46,1.19-.45,.46,0,.91,.13,1.34,.3,.01,0,.03,.02,.05,.02,.63,.2,.95,.93,1.45,1.33,.47,.39,1.08,.65,1.67,.38,.21-.09,.39-.24,.53-.43,.5-.03,.95-.23,1.29-.74,.13-.2-.19-.38-.32-.19-.21,.31-.48,.47-.77,.53,.05-.19,.06-.38,0-.58-.16-.49-.81-.85-1.24-.48-.18,.16,.08,.41,.26,.26,.14-.12,.42,.02,.51,.12,.12,.12,.16,.3,.14,.46,0,.08-.03,.17-.07,.24-.33-.01-.68-.11-1.01-.22-.74-.26-1.42-.67-2.15-.98-.06-.03-.13-.06-.19-.08,0,0,0,0,0,0-.03-.01-.06-.02-.09-.04-.57-.21-1.21-.36-1.82-.27,.26-.2,.54-.38,.85-.52,1.29-.57,2.71-.26,4,.13,1.45,.43,2.89,.9,4.33,1.35,.61,.19,1.23,.38,1.86,.53-.15,.38-.47,.73-.92,.71-.2,0-.48-.11-.62-.24-.19-.17-.18-.4-.13-.63,.05-.23-.3-.33-.36-.1-.13,.57,.06,.98,.6,1.21,.54,.23,1.18,.09,1.55-.39,.11-.14,.2-.31,.25-.49,.45,.08,.9,.13,1.36,.13,.88,.55,1.8,1.12,2.85,1.25,.88,.1,1.89-.16,2.34-.98,.11-.21-.21-.39-.32-.19Zm-12.66,.16s-.06,.05-.1,.07c-.49,.29-1.02,.03-1.41-.3-.17-.14-.32-.31-.46-.48,0,0,.02,0,.03,.01,.57,.27,1.26,.6,1.93,.69Zm3.67-1.52c-.28-.09-.56-.18-.84-.27,.62-.52,1.32-.54,2.04-.4,.01,0,.03,.01,.04,.02,.33,.08,.67,.19,.92,.44,.25,.25,.35,.59,.31,.93-.84-.18-1.66-.47-2.47-.72Z"/>
  <path class="cls-1" d="M19.16,2.1c-.4-.55-.89-1.03-1.49-1.37-1.04-.59-2.24-.63-3.39-.4-1.25,.25-2.48,.68-3.69,1.08-.95-.94-2.15-.8-3.33-.41-.76,.25-1.48,.46-2.29,.48-.4,0-.79,.03-1.1-.27-.14-.13-.27-.33-.29-.52,0-.06-.02-.3,.03-.34,.19-.13,0-.45-.19-.32-.41,.28-.2,.98,.05,1.29,.5,.64,1.32,.57,2.06,.5,.4-.04,.81-.15,1.23-.28-.04,.06-.08,.13-.12,.2-.13,.27-.17,.57-.14,.86-.36,.06-.73,.1-1.09,.11-.07,0-.13,0-.2,0-.02,0-.05,0-.08,0-1.38-.05-2.58-.69-3.46-1.77-.15-.18-.41,.08-.26,.26,.74,.91,1.73,1.57,2.89,1.79,.09,.02,.19,.03,.28,.04-.59,.36-1.21,.7-1.89,.86-.2,.05-.41,.08-.62,.08,0,0,0,0-.01,0-.38-.03-.71-.21-.89-.56-.09-.18-.19-.5,.01-.65,.07-.05,.23-.06,.31-.06,.14-.03,.21,.03,.19,.18,.06,.09,.06,.17-.02,.24-.14,.19,.18,.37,.32,.19,.22-.3,.25-.72-.14-.9-.34-.15-.87-.07-1.06,.27-.19,.33-.04,.77,.16,1.06-.25-.13-.45-.32-.6-.58-.11-.21-.43-.02-.32,.19,.44,.82,1.46,1.08,2.34,.98,1.05-.12,1.98-.7,2.86-1.25,.45,0,.91-.04,1.35-.13,.06,.18,.14,.34,.25,.49,.35,.46,.97,.62,1.49,.41,.57-.23,.8-.64,.66-1.24-.05-.23-.41-.13-.36,.1,.12,.49-.18,.78-.66,.86-.48,.08-.85-.28-1.01-.7,.42-.09,.84-.21,1.25-.33,1.45-.44,2.89-.9,4.34-1.36,1.35-.42,2.83-.9,4.24-.46,.46,.14,.86,.37,1.22,.66-.61-.09-1.26,.06-1.82,.27-.03,.01-.06,.02-.09,.04,0,0,0,0,0,0-.07,.02-.13,.05-.19,.08-.7,.3-1.37,.69-2.09,.95-.34,.13-.72,.23-1.07,.25-.02-.05-.05-.1-.06-.15-.07-.28,.28-.98,.64-.67,.18,.15,.44-.11,.26-.26-.43-.37-1.06-.02-1.23,.45-.07,.2-.07,.41-.01,.6-.3-.06-.57-.22-.77-.53-.13-.2-.45-.01-.32,.19,.34,.51,.79,.71,1.29,.74,.14,.18,.32,.34,.53,.43,.57,.26,1.17,.02,1.63-.35,.26-.21,.5-.46,.71-.72,.22-.28,.43-.53,.79-.65,.02,0,.03-.01,.05-.02,.41-.16,.84-.28,1.28-.3,.47-.02,.95,.08,1.26,.45,.11,.13,.21,.27,.3,.42,.16,.26,.31,.53,.43,.8,.06,.12,.18,.12,.26,.04,.1-.04,.16-.15,.09-.26-.21-.34-.42-.76-.68-1.1Zm-12.3,.44c-.03-.32,.05-.64,.28-.89,.25-.27,.61-.39,.95-.48,.02,0,.03,0,.04-.02,.72-.15,1.42-.13,2.04,.4-.1,.03-.2,.06-.29,.09-.99,.31-1.99,.68-3.02,.9Zm7.65,.56c-.39,.33-.92,.59-1.41,.3-.03-.02-.07-.04-.1-.07,.67-.09,1.37-.42,1.93-.69,0,0,.02,0,.03-.01-.14,.17-.29,.33-.46,.48Z"/>
</svg>