<?xml version="1.0" encoding="UTF-8"?>
<svg id="Capa_1" data-name="Capa 1" xmlns="http://www.w3.org/2000/svg" viewBox="0 0 74.7 74.4">
  <defs>
    <style>
      .cls-1 {
        fill: #fdfdfd;
      }

      .cls-2 {
        fill: #fefefe;
      }

      .cls-3 {
        fill: #fcfcfc;
      }
    </style>
  </defs>
  <path d="M0,72.5c1-2.1,1.9-4.3,2.8-6.5,5.7-13.6,11.3-27.2,17-40.7,.9-2.2,2.7-2.3,4.3-2,2.2,.5,4.1,1.6,6,2.8,1,.6,1.9,1.3,2.8,2,.2,.2,.4,.3,.6,0,2.1-3.7,3.6-7.5,3.4-11.9-.1-1.6-.5-3.1-1.1-4.6-.4-.9,0-1.7,.9-1.8,.6-.1,1,.3,1.3,.9,1.3,2.8,1.6,5.8,1.2,8.8-.5,3.5-1.9,6.8-3.7,9.8-.2,.4-.2,.6,.1,.9,2.9,2.4,5.6,5.1,8,8,.4,.4,.6,.5,1.1,.2,2.8-1.9,5.8-3.3,9.1-3.9,1.7-.3,3.4-.3,5.1,0,.7,.1,1.2,.6,1.1,1.3s-.6,1.2-1.4,1.1c-4.6-.7-8.6,1-12.4,3.4-.5,.3-.6,.5-.2,1,1.7,2.1,3.2,4.4,4.2,6.9,.5,1.2,.9,2.4,.8,3.7-.1,1.2-.7,2.2-1.9,2.6-15.7,6.5-31.3,13-47,19.6-1.2,.5-1.5,.4-2.1-.5v-1.1H0Z"/>
  <path d="M43.8,59.7c.5,0,.9,.2,1.1,.7,.3,.5,.5,1.1,.7,1.7,.3,.8,.9,1.4,1.8,1.7,.5,.2,.9,.4,1.4,.6,.5,.2,.9,.6,.9,1.2,0,.7-.4,1-1,1.2-.5,.2-.9,.4-1.3,.6-.9,.3-1.5,.9-1.8,1.8-.2,.5-.5,1.1-.7,1.6s-.6,.7-1.1,.7-1-.2-1.1-.8c-.6-2.1-2-3.4-4.1-4-.5-.1-.7-.5-.7-1.1,0-.5,.3-.9,.8-1.1,2.4-1.1,2.7-.7,4-4,.2-.5,.6-.8,1.1-.8h0Z"/>
  <path d="M68.8,25.4c.5,0,.9,.3,1.1,.7,1.2,3.2,1.6,3,4,4,.5,.2,.8,.6,.8,1.1s-.3,.9-.7,1.1c-.4,.2-.7,.4-1.1,.5-1.2,.4-2,1.2-2.5,2.5-.1,.4-.3,.7-.5,1.1-.2,.5-.6,.8-1.1,.8s-.9-.3-1.1-.7c-.2-.5-.5-1.1-.7-1.7-.3-.8-.9-1.3-1.6-1.7-.6-.2-1.1-.5-1.7-.7-.5-.2-.8-.6-.8-1.1s.3-.9,.7-1.1c2.1-.6,3.5-2,4.1-4.1,.1-.5,.6-.7,1.1-.7h0Z"/>
  <path d="M69.3,5.9c0,.5-.2,.9-.7,1.1-2.1,.6-3.5,1.9-4.1,4-.2,.5-.6,.8-1.1,.8s-.8-.3-1.1-.7v-.1c-.6-2-1.8-3.3-3.9-3.9-.6-.2-.9-.6-.9-1.2s.3-1,.9-1.1c0,0,.1,0,.1-.1,1.9-.5,3.1-1.7,3.7-3.7,.2-.6,.6-1,1.2-1s1,.4,1.2,1v.1c.5,1.9,1.8,3.1,3.6,3.6,.7,.1,1.1,.4,1.1,1.2h0Z"/>
  <path d="M16.5,21.9c0,.5-.2,1-.8,1.1-2.3,.9-2.9,1-4,4.1-.2,.5-.6,.7-1.1,.7-.6,0-1-.3-1.1-.8-.6-2.1-1.9-3.4-4-4-.5-.1-.8-.6-.8-1.1s.3-.9,.8-1.1h.1c2-.6,3.3-1.9,3.9-3.9,.2-.5,.6-.8,1.2-.8s.9,.3,1.1,.8v.1c.6,2,1.8,3.3,3.9,3.9,.5,0,.8,.4,.8,1h0Z"/>
  <path d="M25.9,2.8c2.7,0,4.9,2.2,5,4.9,0,2.7-2.2,4.9-4.9,5-2.8,0-5-2.2-5-4.9s2.2-5,4.9-5h0Z"/>
  <path d="M62.9,46.4c2.7,0,4.9,2.2,4.9,4.9s-2.2,5-5,4.9c-2.7,0-4.9-2.3-4.9-5,.1-2.6,2.3-4.8,5-4.8h0Z"/>
  <path d="M44,7.7c0-2.7,2.2-4.9,4.9-4.9s4.9,2.2,4.9,5-2.2,4.8-5,4.8-4.8-2.2-4.8-4.9h0Z"/>
  <path d="M50.1,17.9c-.1,1-.4,1.9-.8,2.8-1.6,4.5-4.2,8.2-7.5,11.6-.6,.6-1.3,.7-1.8,.2s-.5-1.2,.1-1.8c3.3-3.4,5.8-7.2,7.2-11.8,.1-.5,.2-1,.4-1.4,.2-.6,.7-.9,1.3-.8,.7,0,1.1,.5,1.1,1.2h0Z"/>
  <path d="M66.1,20.8c0,.4-.3,.8-.9,.9-4.6,1-8.2,3.7-11.6,6.8-.3,.3-.6,.5-.8,.8-.6,.5-1.3,.5-1.8,0s-.4-1.2,.1-1.8c2.1-2,4.3-3.9,6.8-5.4,2-1.2,4.1-2.2,6.4-2.7,1.1-.1,1.8,.4,1.8,1.4h0Z"/>
  <path class="cls-2" d="M43.3,54c-1,.4-1.8,.8-2.6,1.1-1.5,.6-3,1.2-4.5,1.9-.4,.2-.8,.2-1.2,.1-7.7-2-14.6-5.7-21.1-10.4-.2-.1-.4-.2-.3-.6,.8-1.8,1.5-3.7,2.3-5.5,2,1.6,4.1,3.1,6.2,4.4,2.2,1.4,4.5,2.7,6.8,3.9,.8,.4,1.4,.2,1.8-.4,.3-.6,.1-1.3-.7-1.7-4.5-2.3-8.7-5-12.7-8.1-.2-.2-.5-.3-.3-.7,1.1-2.7,2.2-5.4,3.4-8,0-.1,.1-.1,.1-.1,4.4,8.3,10.9,14.8,18.3,20.6-1.2-.3-2.1-.7-3.1-1-.4-.2-.8-.3-1.1-.5-1-.4-1.6-.2-1.9,.5s.1,1.3,1,1.6c2.9,1.2,5.9,2.2,9,2.8,.1-.1,.3,0,.6,.1h0Z"/>
  <path class="cls-2" d="M23.1,25.4c.7,0,1.4,.3,2.2,.7,2.2,1,4.2,2.3,6.2,3.8,.4,.3,.3,.4,.1,.7-.6,.8-1.2,1.6-1.9,2.3-.6,.7-.6,1.4,0,1.9s1.2,.4,1.8-.3c.7-.8,1.3-1.6,1.9-2.4,.2-.3,.4-.4,.7-.1,2.8,2.4,5.3,5,7.8,7.7,.2,.3,.2,.4-.1,.6-.4,.3-.8,.7-1.1,1-.6,.6-.6,1.2-.1,1.8,.5,.5,1.2,.5,1.8,0,.4-.4,.8-1.1,1.3-1s.8,.8,1.1,1.3c1.4,1.9,2.6,3.8,3.4,6.1,.2,.5,.4,1.1,.4,1.6,.1,.8-.2,1-1,.9-1-.1-1.9-.5-2.8-.9-3.1-1.5-5.9-3.6-8.5-5.8-4.5-3.9-8.6-8.2-11.8-13.3-1-1.6-2-3.3-2.4-5.2-.2-1.1,0-1.4,1-1.4h0Z"/>
  <path class="cls-2" d="M21.4,63.1c-.6,.2-1,.4-1.5,.6-1.7,.7-3.4,1.4-5.2,2.2-.4,.2-.7,.2-1,0-2.2-1-4.3-2.2-6.4-3.4-.3-.2-.5-.3-.3-.8,.7-1.5,1.3-3.1,1.9-4.6,.2-.4,.3-.5,.6-.2,.3,.2,.6,.5,1,.6,.6,.3,1.2,.2,1.6-.4,.3-.5,.2-1.2-.3-1.6-.1-.1-.2-.1-.2-.2-.5-.4-1.3-.5-1.4-1.1-.1-.5,.4-1.1,.6-1.7,.5-1.3,1.1-2.6,1.6-4,3,2.2,6.1,4.1,9.3,5.8,3.2,1.7,6.5,3.1,10.2,4.2-1.3,.5-2.4,1-3.5,1.5-1,.4-2,.8-3,1.3-.6,.3-1.1,.3-1.8,0-2.5-1-4.9-2-7.2-3.3-.2-.1-.3-.2-.5-.3-.7-.3-1.4-.2-1.7,.5-.3,.6-.1,1.3,.6,1.7,1.7,.9,3.4,1.8,5.2,2.5,.5,.3,.9,.5,1.4,.7h0Z"/>
  <path class="cls-2" d="M11.3,67.3c-2.7,1.1-5.2,2.2-7.8,3.2-.2-.2,0-.4,.1-.5,.7-1.7,1.4-3.4,2.1-5.2,.1-.2,.1-.6,.5-.3,1.7,1.1,3.3,1.9,5.1,2.8h0Z"/>
  <path class="cls-1" d="M43.8,63.8c.5,.7,1,1.3,1.8,1.8-.8,.5-1.4,1-1.8,1.8-.5-.6-1-1.2-1.6-1.6-.2-.1-.2-.2,0-.4,.7-.4,1.2-.9,1.6-1.6h0Z"/>
  <path class="cls-1" d="M68.8,33.1c-.4-.6-.9-1.2-1.5-1.6-.3-.2-.3-.3,0-.5,.6-.4,1.1-1,1.5-1.6,.5,.8,1,1.3,1.8,1.8-.8,.6-1.3,1.2-1.8,1.9h0Z"/>
  <path class="cls-1" d="M63.4,7.7c-.5-.8-1.1-1.4-1.8-1.9,.8-.5,1.4-1,1.8-1.8,.5,.7,1.1,1.4,1.9,1.8-.8,.5-1.4,1.1-1.9,1.9Z"/>
  <path class="cls-3" d="M12.5,22c-.8,.5-1.4,1.1-1.8,1.8-.5-.8-1.1-1.3-1.8-1.8,.7-.5,1.3-1.1,1.8-1.9,.4,.8,1,1.4,1.8,1.9Z"/>
  <path class="cls-2" d="M25.9,5.2c1.4,0,2.5,1.1,2.5,2.5s-1.1,2.6-2.5,2.6-2.6-1.2-2.6-2.6c.1-1.4,1.2-2.5,2.6-2.5h0Z"/>
  <path class="cls-2" d="M65.4,51.3c0,1.4-1.1,2.5-2.5,2.6-1.4,0-2.6-1.2-2.6-2.6s1.1-2.5,2.6-2.5c1.4,0,2.5,1.1,2.5,2.5Z"/>
  <path class="cls-2" d="M46.4,7.7c0-1.4,1.1-2.5,2.6-2.5,1.4,0,2.5,1.1,2.5,2.5s-1.2,2.6-2.6,2.6-2.5-1.2-2.5-2.6Z"/>
</svg>