<?xml version="1.0" encoding="utf-8"?>
<!-- Generator: Adobe Illustrator 28.0.0, SVG Export Plug-In . SVG Version: 6.00 Build 0)  -->
<svg version="1.1" id="Capa_1" xmlns="http://www.w3.org/2000/svg" xmlns:xlink="http://www.w3.org/1999/xlink" x="0px" y="0px"
	 viewBox="0 0 35.8 41.6" style="enable-background:new 0 0 35.8 41.6;" xml:space="preserve">
<style type="text/css">
	.st0{fill-rule:evenodd;clip-rule:evenodd;fill:#9E883F;}
</style>
<path class="st0" d="M19.8,41.5c3.9,0.1,8,0.1,11.9,0c2.5,0,2-2.3,2-4V25.7c0-1.6,0.5-4-1.9-4c-3.9-0.1-8,0-11.9,0L19.8,41.5
	C19.8,41.5,19.8,41.5,19.8,41.5z"/>
<path class="st0" d="M16.1,41.5V21.7c-4,0-7.9,0-11.9,0c-2.3,0-2,1.9-2,3.9v11.8c0,0.7-0.1,2.3,0.1,2.8c0.3,0.7,0.9,1.2,1.8,1.2
	C8,41.6,12.1,41.5,16.1,41.5L16.1,41.5z"/>
<path class="st0" d="M11.4,9.6c-4.9,0.6-6.8-2.1-7.2-2.2c-0.9-0.4-2.8,0.8-0.1,2.7c1.6,1.1,3.7,1.6,6,1.7c5,0.1,10.4,0,15.4,0
	c2.3,0,4.5-0.6,6-1.7c2.7-1.9,1-3.1,0.1-2.8c-1,0.3-1.2,2.5-7.3,2.3c0.1-0.2,0.9-0.6,1.1-0.7c1-0.7,2.1-1.7,2.7-3
	c1.6-3.8-2.4-8.2-7.1-4.6c-0.7,0.5-1.3,1.2-1.8,1.9c-0.7,0.9-1.2,2.1-1.4,2.4c-0.3-0.3-1.1-2.7-3.2-4.3C8.6-3.4,3.3,5.6,11.4,9.6
	L11.4,9.6L11.4,9.6z M16.6,8.5C16.5,7,15.1,4.8,14.4,4c-0.7-0.8-3.2-2.9-4.5-1.3C7.6,5.4,12.7,8.9,16.6,8.5L16.6,8.5z M19.2,8.5
	c1.9,0.2,4-0.6,5.3-1.4c3.5-2.3,1.9-6-1.1-4.6C22.5,2.9,22,3.4,21.5,4C20.8,4.6,19.3,7.1,19.2,8.5L19.2,8.5L19.2,8.5z"/>
<path class="st0" d="M19.8,20.3c1.2,0,14.2,0.1,14.8-0.1c1.5-0.5,1.3-2,1.3-3.7s0.3-3.2-1.2-3.8C34,12.5,21,12.6,19.8,12.7
	L19.8,20.3L19.8,20.3L19.8,20.3z"/>
<path class="st0" d="M16.1,20.3v-7.6c-1.3,0-14.2-0.1-14.8,0.1c-1.5,0.5-1.3,2-1.3,3.7s-0.2,3.2,1.2,3.8
	C1.8,20.4,14.8,20.3,16.1,20.3C16.1,20.3,16.1,20.3,16.1,20.3z"/>
</svg>
